<?xml version="1.0" encoding="UTF-8"?> <svg xmlns="http://www.w3.org/2000/svg" xmlns:xlink="http://www.w3.org/1999/xlink" version="1.1" id="Layer_1" x="0px" y="0px" viewBox="0 0 75 75" xml:space="preserve"> <path fill="none" stroke="#575756" stroke-width="0.25" stroke-miterlimit="10" d="M35.42,58"></path> <path fill="#575756" stroke="#575756" stroke-width="0.25" stroke-miterlimit="10" d="M37.67,32.34l12.28,13.97H37.66v11.64h18.86 V55.3c0,0-3.22-0.61-3.22-3.96l2.23,2.23l1.12-1.12l-2.23-2.23c0,0,0-1.12,2.23-1.12v-2.76h-4.66L37.66,29.9"></path> <path fill="#1D1D1B" d="M31.93,31.57c0,0,2.83,4.09,5.63,4.65c1.31,0.26,2.36-0.33,3.11-1.04c1.08-1.02,1.54-2.57,1.12-4 c-0.26-0.88-0.79-1.9-1.84-2.8c-0.4-0.35-0.52-0.93-0.28-1.4l0.5-1.01c0.14-0.29,0.18-0.46,0.18-0.64v-7.29 c0-0.17,0.04-0.33,0.11-0.49l1.45-3.18c0.07-0.15,0.11-0.32,0.11-0.49V9.31c0-0.65-0.52-1.17-1.17-1.17h-7.74 c-0.65,0-1.17,0.52-1.17,1.17v4.88c0,0.23,0.07,0.45,0.19,0.64l2.46,3.78c0.12,0.19,0.19,0.41,0.19,0.64v6.98 c0,0.31,0.12,0.6,0.34,0.82c0.59,0.6,1.84,1.91,2.56,3.1c0.37,0.6,0.16,1.47-0.51,1.68c-0.05,0.02-0.1,0.04-0.15,0.07 c-0.5,0.31-1.13,0.34-1.55-0.07l-1.8-1.75C33.65,30.07,31.34,29.71,31.93,31.57z"></path> <path fill="#FFFFFF" d="M36.18,19.63v1.86c0,0.4,0.32,0.72,0.72,0.72h1.2c0.4,0,0.72-0.32,0.72-0.72v-1.86 c0-0.4-0.32-0.72-0.72-0.72h-1.2C36.5,18.9,36.18,19.23,36.18,19.63z"></path> <path fill="none" stroke="#1D1D1B" stroke-width="0.25" stroke-miterlimit="10" d="M37.02,32.31"></path> <path fill="none" stroke="#1D1D1B" stroke-width="0.25" stroke-miterlimit="10" d="M37.01,29.86"></path> <path fill="none" stroke="#1D1D1B" stroke-width="0.25" stroke-miterlimit="10" d="M37.02,32.31"></path> <path fill="none" stroke="#1D1D1B" stroke-width="0.25" stroke-miterlimit="10" d="M37.02,32.31"></path> <path fill="#575756" stroke="#575756" stroke-width="0.25" stroke-miterlimit="10" d="M37.58,30.21L23.25,46.66l-4.7-0.32v2.76 c2.23,0,2.23,1.12,2.23,1.12l-2.23,2.23l1.12,1.12l2.23-2.23c0,3.35-3.22,3.96-3.22,3.96v2.66h18.86V46.31H25.25l12.28-13.97 L37.58,30.21z"></path> <path fill="#FFFFFF" stroke="#1D1D1B" stroke-width="0.25" stroke-miterlimit="10" d="M37.02,32.31"></path> <path fill="none" stroke="#1D1D1B" stroke-width="0.25" stroke-miterlimit="10" d="M37.01,29.86"></path> </svg> 