<?xml version="1.0" encoding="UTF-8"?> <svg xmlns="http://www.w3.org/2000/svg" xmlns:xlink="http://www.w3.org/1999/xlink" version="1.1" id="Layer_1" x="0px" y="0px" viewBox="0 0 75 75" style="enable-background:new 0 0 75 75;" xml:space="preserve"> <style type="text/css"> .st0{fill:#1D1D1B;} .st1{fill:#878787;} .st2{fill:#29235C;} </style> <path class="st0" d="M31.2,49.8l-5.1,0c-0.4,0-0.6-0.3-0.6-0.7l0.1-13.7c0-0.4,0.3-0.6,0.6-0.6l4.1,0c0.3,0,0.6,0.3,0.6,0.6 l0.8,13.7C31.9,49.5,31.6,49.8,31.2,49.8z"></path> <path class="st0" d="M34.8,49.8H39c0.4,0,0.7-0.3,0.6-0.7l-1.1-11.6c0-0.3-0.3-0.6-0.6-0.6h-2.4c-0.3,0-0.6,0.3-0.6,0.6l-0.6,11.6 C34.1,49.5,34.4,49.8,34.8,49.8z"></path> <path class="st0" d="M42.8,49.8h5.6c0.4,0,0.7-0.3,0.6-0.7l-1.6-14.1c0-0.3-0.3-0.6-0.6-0.6h-3.3c-0.3,0-0.6,0.3-0.6,0.6l-0.8,14.2 C42.1,49.5,42.4,49.8,42.8,49.8z"></path> <rect x="43" y="27.9" class="st0" width="4.4" height="3"></rect> <rect x="34.8" y="30.7" class="st0" width="4.2" height="3.1"></rect> <polyline class="st0" points="25.9,26.6 30.7,26.6 30.7,30.9 25.9,30.9 "></polyline> <polyline class="st0" points="55,53.1 55,56.1 20.4,56.1 20.4,53.6 21.7,51 37.7,51 37.7,52.8 39.1,52.8 39.1,51 53.7,51 "></polyline> <path class="st0" d="M19.1,56.2"></path> <path class="st1" d="M43.6,20.2c0,0-1.9,1.3-0.9,3.8c0.2,0.6,0.7,1.2,1.3,1.5c0.5,0.3,1.3,0.5,2.2,0.5c0.9,0,1.7-0.5,2.4-1.1 c0.5-0.5,0.9-1.1,0.7-1.9c0,0,0.8-0.2,0.8-1.5c0,0,1.8,2.3,5.1,0c2.7-1.8,3.6-9.9,3.9-11.6c0.1-0.8-0.1-3-0.4-3.8 c-0.7-1.8-2.7-4.8-7.3-3.9c-6.4,1.3-5.6,13.2-5.6,13.2S43.6,16.3,43.6,20.2z"></path> <polyline class="st2" points="54.1,59.8 55,59.8 55,57.5 20.4,57.5 20.4,59.8 54.1,59.8 "></polyline> </svg> 