<?xml version="1.0" encoding="UTF-8"?> <svg xmlns="http://www.w3.org/2000/svg" xmlns:xlink="http://www.w3.org/1999/xlink" version="1.1" id="Layer_1" x="0px" y="0px" viewBox="0 0 75 75" xml:space="preserve"> <path fill="#FFFFFF" stroke="#1D1D1B" stroke-miterlimit="10" d="M26.36,20.07"></path> <path fill="#1D1D1B" d="M10.12,51.06V36.53c0-0.82,0.66-1.49,1.48-1.5l3.09-0.05c0.84-0.01,1.52,0.66,1.52,1.5v14.57 c0,0.83-0.67,1.5-1.5,1.5h-3.09C10.79,52.56,10.12,51.88,10.12,51.06z"></path> <path fill="#1D1D1B" d="M16.89,41v5.9c0,1.47,1.19,2.66,2.66,2.66h1.37c0.61,0,1.21,0.21,1.68,0.6l10.52,8.61 c0.45,0.36,1,0.57,1.57,0.6l14.39,0.6c0.62,0.03,1.24-0.17,1.73-0.55l15.97-12.28c0.83-0.64,1.26-1.72,0.96-2.72 c-0.16-0.55-0.53-1.11-1.28-1.51c-0.77-0.42-1.72-0.38-2.49,0.04L52,49.52c-0.39,0.22-0.83,0.33-1.28,0.33h-9.04 c-0.29,0-0.57-0.05-0.84-0.14l-3.65-1.22h9.56c1.08,0,2.08-0.65,2.46-1.66c0.09-0.25,0.17-0.52,0.21-0.82 c0.21-1.57-1.07-2.94-2.64-2.94h-8.58c-0.61,0-1.2-0.21-1.67-0.59c-1.21-1-4-3.02-7.79-4.05c-0.23-0.06-0.48-0.09-0.72-0.09h-8.45 C18.08,38.34,16.89,39.53,16.89,41z"></path> <polygon fill="#FFFFFF" stroke="#1D1D1B" stroke-miterlimit="10" points="13.17,37.04 14.1,49.17 15.07,49.17 15.07,37.04 "></polygon> <path fill="#683B11" d="M36.42,39.5c0,0,0.19-2.51,4.28-2.98c0,0,2.33-4.84,7.81-2.98c0,0,1.2-1.14,2.94-1.72 c2.03-0.67,4.79-0.55,7.2,3.11c0,0,5.06-0.74,5.83,4.56H36.42z"></path> <path fill="#008D36" d="M51.45,31.96c0,0,0.13-3.59-1.64-7.49c0,0-10.05,1.4-10.51-11.35c0,0,12.44-0.11,11.15,10.96l0.76,1.59 c0,0,0.74-3.26,1.77-3.91c0,0-1.67-10.42,11.16-10.98c0,0-0.09,12.37-10.51,11.35c0,0-1.21,0.87-1.91,5.6c0,0,0.6,2.24,0.65,3.9 L51.45,31.96z"></path> </svg> 