<?xml version="1.0" encoding="UTF-8"?> <svg xmlns="http://www.w3.org/2000/svg" xmlns:xlink="http://www.w3.org/1999/xlink" version="1.1" id="Layer_1" x="0px" y="0px" viewBox="0 0 75 75" xml:space="preserve"> <path fill="none" stroke="#1D1D1B" stroke-width="0.25" stroke-miterlimit="10" d="M17.69,54.7"></path> <polygon fill="#1D1D1B" stroke="#1D1D1B" stroke-width="0.25" stroke-miterlimit="10" points="19.43,54.1 15.98,54.1 15.98,56.91 59.38,56.91 59.38,53.92 55.66,53.92 55.66,22.94 59.38,22.94 59.38,20.13 15.98,20.13 15.98,22.93 19.43,22.93 "></polygon> <polygon fill="#FFFFFF" stroke="#1D1D1B" stroke-width="0.25" stroke-miterlimit="10" points="20.27,53.98 54.73,53.98 54.73,22.94 20.27,23.07 "></polygon> <rect x="12" y="58.24" fill="#1D1D1B" width="51" height="3.18"></rect> <path fill="#312783" stroke="#1D1D1B" stroke-width="0.25" stroke-miterlimit="10" d="M48.08,48.95H27.48 c-2.58,0-4.13-2.86-2.73-5.02L35,28.11c1.28-1.97,4.16-1.98,5.45-0.01L50.8,43.92C52.21,46.08,50.66,48.95,48.08,48.95z"></path> <rect x="20.36" y="17.37" fill="#1D1D1B" stroke="#1D1D1B" stroke-width="0.25" stroke-miterlimit="10" width="5.99" height="1.58"></rect> <path fill="#FFFFFF" stroke="#1D1D1B" stroke-width="0.25" stroke-miterlimit="10" d="M47.45,47.1H28.1c-1.1,0-1.77-1.22-1.17-2.15 l9.63-14.87c0.55-0.85,1.78-0.85,2.34-0.01l9.72,14.87C49.22,45.87,48.55,47.1,47.45,47.1z"></path> <polygon fill="#FFED00" stroke="#1D1D1B" stroke-width="0.25" stroke-miterlimit="10" points="37,35.95 33.13,41.37 36.4,41.37 34.68,45.24 40.87,39.82 38.19,39.64 41.22,35.95 "></polygon> <rect x="20.34" y="14.88" fill="#1D1D1B" stroke="#1D1D1B" stroke-width="0.25" stroke-miterlimit="10" width="5.99" height="1.58"></rect> <rect x="20.34" y="12.09" fill="#1D1D1B" stroke="#1D1D1B" stroke-width="0.25" stroke-miterlimit="10" width="5.99" height="1.58"></rect> <path fill="#1D1D1B" stroke="#1D1D1B" stroke-width="0.2" stroke-miterlimit="10" d="M25.79,11.26h-5.01c-0.51,0-0.71-0.6-0.28-0.86 l1.77-1.06c0.36-0.22,0.79-0.34,1.23-0.34h0c0.53,0,1.05,0.18,1.45,0.49l1.18,0.94C26.49,10.73,26.26,11.26,25.79,11.26z"></path> <rect x="29.98" y="17.49" fill="#1D1D1B" stroke="#1D1D1B" stroke-width="0.25" stroke-miterlimit="10" width="5.99" height="1.58"></rect> <rect x="29.96" y="15" fill="#1D1D1B" stroke="#1D1D1B" stroke-width="0.25" stroke-miterlimit="10" width="5.99" height="1.58"></rect> <rect x="29.96" y="12.21" fill="#1D1D1B" stroke="#1D1D1B" stroke-width="0.25" stroke-miterlimit="10" width="5.99" height="1.58"></rect> <path fill="#1D1D1B" stroke="#1D1D1B" stroke-width="0.2" stroke-miterlimit="10" d="M35.41,11.39h-5.01c-0.51,0-0.71-0.6-0.28-0.86 l1.77-1.06c0.36-0.22,0.79-0.34,1.23-0.34l0,0c0.53,0,1.05,0.18,1.45,0.49l1.18,0.94C36.11,10.86,35.89,11.39,35.41,11.39z"></path> <rect x="40.2" y="17.49" fill="#1D1D1B" stroke="#1D1D1B" stroke-width="0.25" stroke-miterlimit="10" width="5.99" height="1.58"></rect> <rect x="40.18" y="15" fill="#1D1D1B" stroke="#1D1D1B" stroke-width="0.25" stroke-miterlimit="10" width="5.99" height="1.58"></rect> <rect x="40.18" y="12.21" fill="#1D1D1B" stroke="#1D1D1B" stroke-width="0.25" stroke-miterlimit="10" width="5.99" height="1.58"></rect> <path fill="#1D1D1B" stroke="#1D1D1B" stroke-width="0.2" stroke-miterlimit="10" d="M45.63,11.39h-5.01c-0.51,0-0.71-0.6-0.28-0.86 l1.77-1.06c0.36-0.22,0.79-0.34,1.23-0.34l0,0c0.53,0,1.05,0.18,1.45,0.49l1.18,0.94C46.33,10.86,46.11,11.39,45.63,11.39z"></path> <rect x="49.49" y="17.49" fill="#1D1D1B" stroke="#1D1D1B" stroke-width="0.25" stroke-miterlimit="10" width="5.99" height="1.58"></rect> <rect x="49.47" y="15" fill="#1D1D1B" stroke="#1D1D1B" stroke-width="0.25" stroke-miterlimit="10" width="5.99" height="1.58"></rect> <rect x="49.47" y="12.21" fill="#1D1D1B" stroke="#1D1D1B" stroke-width="0.25" stroke-miterlimit="10" width="5.99" height="1.58"></rect> <path fill="#1D1D1B" stroke="#1D1D1B" stroke-width="0.2" stroke-miterlimit="10" d="M54.92,11.39h-5.01c-0.51,0-0.71-0.6-0.28-0.86 l1.77-1.06c0.36-0.22,0.79-0.34,1.23-0.34l0,0c0.53,0,1.05,0.18,1.45,0.49l1.18,0.94C55.62,10.86,55.4,11.39,54.92,11.39z"></path> </svg> 