<?xml version="1.0" encoding="UTF-8"?> <svg xmlns="http://www.w3.org/2000/svg" xmlns:xlink="http://www.w3.org/1999/xlink" version="1.1" id="Layer_1" x="0px" y="0px" viewBox="0 0 75 75" xml:space="preserve"> <path fill="none" d="M30.76,57.37"></path> <polygon fill="#432918" points="47.8,31.72 47.8,28.23 48.73,28.23 48.73,30.5 52.07,30.5 52.07,29.28 53.06,29.28 53.06,31.72 "></polygon> <path fill="#F9B233" d="M25.18,29.49V19.25c0,0,11.15-2.02,17.84,0.21v11.96l13.38,0.3c0,0,1.11,0,2.23,1.11v14.85l-33.45-0.62 V29.49"></path> <polygon fill="#432918" points="39.68,15 39.68,17.44 43.02,19.46 43.02,31.42 44.35,31.42 44.35,18.72 "></polygon> <rect x="46.05" y="29.19" fill="#432918" width="1.17" height="2.23"></rect> <path fill="#F39200" d="M41.29,28.94H28.25c-0.71,0-1.29-0.58-1.29-1.29v-5.23c0-0.71,0.58-1.29,1.29-1.29h13.03 c0.71,0,1.29,0.58,1.29,1.29v5.23C42.58,28.36,42,28.94,41.29,28.94z"></path> <path fill="#C0DDFF" d="M36.05,28.38h-6.12c-0.77,0-1.4-0.63-1.4-1.4v-3.89c0-0.77,0.63-1.4,1.4-1.4h6.12c0.77,0,1.4,0.63,1.4,1.4 v3.89C37.45,27.75,36.82,28.38,36.05,28.38z"></path> <path fill="#BFD8F7" d="M40.96,28.38h-0.33c-0.53,0-0.95-0.43-0.95-0.95v-4.79c0-0.53,0.43-0.95,0.95-0.95h0.33 c0.53,0,0.95,0.43,0.95,0.95v4.79C41.91,27.95,41.48,28.38,40.96,28.38z"></path> <rect x="44.14" y="33.95" fill="#1D1D1B" width="10.03" height="1.11"></rect> <path fill="#3C3C3B" d="M33.72,55.87c0.26,0.15,0.55,0.21,0.77,0l5.19-5.19l-0.51-0.51c-0.37-0.37-0.5-0.92-0.33-1.42l0.01-0.02 c0.28-0.84,1.07-1.4,1.95-1.4l0.15-7.25H39.8c-0.48,0-0.89-0.32-1.01-0.79l-0.08-0.33c-0.09-0.34,0.01-0.7,0.26-0.95l0.71-0.71 l-5.41-5.41c-0.09-0.09-0.24-0.09-0.33,0v0c-0.55,0.55-1.42,0.64-2.07,0.21l-0.3-0.2c-0.31-0.21-0.5-0.56-0.5-0.94v-0.81h-8.11H22.5 v0.98c0,0.37-0.19,0.71-0.5,0.9l-0.64,0.4c-0.37,0.23-0.86,0.18-1.17-0.13l-0.58-0.58l-4.63,5.05l0.7,0.89 c0.35,0.45,0.38,1.07,0.06,1.55l-0.16,0.25c-0.26,0.39-0.7,0.63-1.18,0.63h-0.7v7.25h0.44c0.62,0,1.19,0.35,1.47,0.91l0.26,0.53 c0.2,0.4,0.18,0.87-0.05,1.26l-0.5,0.82L20,55.53c0.09,0.09,0.24,0.09,0.33,0l0.93-0.93c0.34-0.34,0.86-0.38,1.25-0.12l0.4,0.27 c0.34,0.24,0.55,0.63,0.55,1.04v1.33c0,0.13,0.1,0.23,0.23,0.23h7.06C30.76,57.37,31.11,54.37,33.72,55.87z"></path> <ellipse fill="#683C11" cx="27.41" cy="43.43" rx="11.71" ry="11.95"></ellipse> <circle fill="#F9B233" cx="27.19" cy="43.43" r="6.13"></circle> <circle fill="#683C11" cx="27.19" cy="43.43" r="5.02"></circle> <circle fill="#1D1D1B" cx="27.19" cy="43.43" r="3.9"></circle> <circle fill="#F9B233" cx="27.19" cy="43.43" r="2.79"></circle> <path fill="none" d="M57.83,55.4"></path> <path fill="#3C3C3B" d="M59.62,54.49c0.16,0.09,0.34,0.13,0.46,0l3.15-3.15l-0.31-0.31c-0.22-0.22-0.3-0.56-0.2-0.86l0-0.01 c0.17-0.51,0.65-0.85,1.18-0.85L64,44.93h-0.69c-0.29,0-0.54-0.2-0.61-0.48l-0.05-0.2c-0.05-0.21,0.01-0.43,0.16-0.58l0.43-0.43 l-3.28-3.28c-0.06-0.06-0.15-0.06-0.2,0l0,0c-0.33,0.33-0.86,0.39-1.25,0.13l-0.18-0.12c-0.19-0.13-0.3-0.34-0.3-0.57V38.9H53.1 h-0.28v0.6c0,0.22-0.11,0.43-0.3,0.55l-0.39,0.24c-0.23,0.14-0.52,0.11-0.71-0.08l-0.35-0.35l-2.81,3.06l0.42,0.54 c0.21,0.27,0.23,0.65,0.04,0.94l-0.1,0.15c-0.16,0.24-0.43,0.38-0.71,0.38h-0.42v4.39h0.27c0.38,0,0.72,0.21,0.89,0.55l0.16,0.32 c0.12,0.24,0.11,0.53-0.03,0.76l-0.3,0.5l2.84,2.84c0.06,0.06,0.15,0.06,0.2,0l0.56-0.56c0.2-0.2,0.52-0.23,0.76-0.07l0.24,0.17 c0.21,0.14,0.33,0.38,0.33,0.63v0.81c0,0.08,0.06,0.14,0.14,0.14h4.28C57.83,55.4,58.04,53.59,59.62,54.49z"></path> <ellipse fill="#683C11" cx="55.8" cy="46.95" rx="7.1" ry="7.24"></ellipse> <circle fill="#F9B233" cx="55.66" cy="46.95" r="3.72"></circle> <circle fill="#683C11" cx="55.66" cy="46.95" r="3.04"></circle> <circle fill="#1D1D1B" cx="55.66" cy="46.95" r="2.37"></circle> <circle fill="#F9B233" cx="55.66" cy="46.95" r="1.69"></circle> <rect x="44.14" y="36.05" fill="#1D1D1B" width="10.03" height="1.11"></rect> <polygon fill="#FFFFFF" points="28.53,23.6 30.76,21.69 31.36,21.69 28.53,24.18 "></polygon> <polygon fill="#FFFFFF" points="32.11,21.69 32.73,21.69 28.53,25.35 28.53,24.78 "></polygon> <circle fill="#1D1D1B" cx="40.79" cy="33.95" r="1.11"></circle> </svg> 