<?xml version="1.0" encoding="UTF-8"?> <svg xmlns="http://www.w3.org/2000/svg" xmlns:xlink="http://www.w3.org/1999/xlink" version="1.1" id="Layer_1" x="0px" y="0px" viewBox="0 0 75 75" xml:space="preserve"> <rect x="32.5" y="50.12" fill="#F39200" width="26" height="4.08"></rect> <rect x="32.5" y="44.23" fill="#F39200" width="26" height="3.89"></rect> <rect x="32.5" y="38.34" fill="#F39200" width="26" height="3.62"></rect> <rect x="32.5" y="32.09" fill="#F39200" width="26" height="3.89"></rect> <rect x="32.5" y="26.2" fill="#F39200" width="26" height="3.8"></rect> <rect x="32.5" y="56.18" fill="#F39200" width="26" height="4.26"></rect> <path fill="#1D1D1B" stroke="#1D1D1B" stroke-miterlimit="10" d="M45.5,21.57v2.55h12.47v-2.67c0-0.93-0.75-1.68-1.68-1.68h-3.03 V12.5v-1l3.24-2c0,0,1-2-1-2l-24.89,8.31l-0.06-1.66c-0.03-0.92-0.79-1.65-1.71-1.65H26.5l-1.78-3.21c-0.45-0.81-1.6-0.85-2.11-0.07 L20.5,12.5h-2.37c-0.9,0-1.63,0.73-1.63,1.63v6.73L6.06,28.79c-0.36,0.28-0.54,0.74-0.43,1.18c0.01,0.02,0.01,0.04,0.02,0.06 c0.24,0.85,1.25,1.21,2,0.73l9.85-6.27v36h10.21l-0.21-35.67c0-0.73,0.59-1.33,1.32-1.33h0.67c0,0,1,0,1-2l20-9v7h-2.93 C46.43,19.5,45.5,20.43,45.5,21.57z"></path> <polygon fill="#FFFFFF" stroke="#1D1D1B" stroke-miterlimit="10" points="21.73,58.31 24.81,54.19 24.81,58.31 "></polygon> <polygon fill="#FFFFFF" stroke="#1D1D1B" stroke-miterlimit="10" points="21.19,54.19 24.5,50.5 21.19,48.12 "></polygon> <polygon fill="#FFFFFF" stroke="#1D1D1B" stroke-miterlimit="10" points="24.5,41.5 24.5,47.67 21.73,44.59 "></polygon> <polygon fill="#FFFFFF" stroke="#1D1D1B" stroke-miterlimit="10" points="21.19,41.06 21.19,34.04 24.5,37.55 "></polygon> <polygon fill="#FFFFFF" stroke="#1D1D1B" stroke-miterlimit="10" points="21.5,30.5 24.81,34.04 24.81,27.74 "></polygon> <polygon fill="#FFFFFF" stroke="#1D1D1B" stroke-miterlimit="10" points="21.19,27.2 21.19,23.76 24.5,23.76 "></polygon> <rect x="23.5" y="16.06" fill="#FFFFFF" stroke="#1D1D1B" stroke-miterlimit="10" width="3.94" height="3.44"></rect> <polygon fill="#FFFFFF" stroke="#1D1D1B" stroke-miterlimit="10" points="21.73,13.5 23.27,11.69 24.5,13.5 "></polygon> </svg> 