<?xml version="1.0" encoding="UTF-8"?> <svg xmlns="http://www.w3.org/2000/svg" xmlns:xlink="http://www.w3.org/1999/xlink" version="1.1" id="Layer_1" x="0px" y="0px" viewBox="0 0 75 75" xml:space="preserve"> <path fill="#29235C" d="M37.7,17.54l4.52,5.61c0.18,0.22,0.45,0.35,0.73,0.35h12.79c0.75,0,1.2-0.84,0.78-1.46l-6.6-9.9 c-0.25-0.37-0.72-0.52-1.13-0.35l-10.71,4.3C37.49,16.32,37.3,17.05,37.7,17.54z"></path> <path fill="#29235C" d="M15.51,23.5h22.9c0,0-7.91-11-12.91-10C25.5,13.5,21.52,12.5,15.51,23.5z"></path> <circle fill="#1D1D1B" stroke="#1D1D1B" stroke-miterlimit="10" cx="21.5" cy="57.5" r="2.5"></circle> <circle fill="#1D1D1B" stroke="#1D1D1B" stroke-miterlimit="10" cx="52.5" cy="57.5" r="2.5"></circle> <path fill="none" stroke="#1D1D1B" stroke-miterlimit="10" d="M17.54,57.5"></path> <path fill="none" stroke="#1D1D1B" stroke-miterlimit="10" d="M56.5,58.5"></path> <path fill="none" stroke="#1D1D1B" stroke-miterlimit="10" d="M20.52,41.42"></path> <path fill="none" stroke="#1D1D1B" stroke-miterlimit="10" d="M25.01,37.42"></path> <path fill="#1D1D1B" stroke="#1D1D1B" stroke-miterlimit="10" d="M16.94,48.5h23.6h0.96v1.46c0,0.85-0.69,1.54-1.54,1.54H15.79 c-0.59,0-1.07,0.48-1.07,1.07v3.87c0,0.59,0.48,1.07,1.07,1.07h1.75l-0.02-0.15c0-2.49,2.28-4.45,4.87-3.91 c1.85,0.39,3.13,2.12,3.13,4.01v0.05h20.72h2.26c0-2.21,1.79-4,4-4s4,1.79,4,4l1.36,0c0.56,0,1.02-0.43,1.06-0.99l2.29-29.87 c0.05-0.62-0.44-1.15-1.06-1.15H13.57c-0.59,0-1.07,0.48-1.07,1.07v5.92c0,0.59,0.48,1.07,1.07,1.07l25.89,0.07 c0.79,0,1.44,0.65,1.44,1.44v0.04c0,0.83-0.67,1.5-1.5,1.5H14.22c-0.59,0-1.07,0.48-1.07,1.07v2.77c0,0.59,0.48,1.07,1.07,1.07 h25.99c0.38,0,0.68,0.31,0.68,0.68v0.39c0,0.51-0.41,0.92-0.92,0.92H16.3c-0.82,0-1.48,0.66-1.48,1.48v2.22c0,0.72,0.58,1.3,1.3,1.3 H16.94z"></path> </svg> 