<?xml version="1.0" encoding="UTF-8"?> <svg xmlns="http://www.w3.org/2000/svg" xmlns:xlink="http://www.w3.org/1999/xlink" version="1.1" id="Layer_1" x="0px" y="0px" viewBox="0 0 75 75" xml:space="preserve"> <path fill="#312783" d="M6.09,48.6h63.82c1.71,0,3.09-1.31,3.09-2.92v-1.03c0-1.61-1.38-2.92-3.09-2.92H7.17H6.09 C4.38,41.74,3,43.04,3,44.66v1.03C3,47.29,4.38,48.6,6.09,48.6z"></path> <circle fill="#1D1D1B" cx="14.67" cy="49.33" r="4.38"></circle> <circle fill="#F39200" cx="14.67" cy="49.33" r="2.92"></circle> <polygon fill="#1D1D1B" points="7.17,41.74 7.17,33.07 11.75,26 29.7,26 29.7,41.74 "></polygon> <path fill="#F39200" d="M35.78,40.43v-2c0-0.72-0.59-1.31-1.31-1.31h-1.6c-0.72,0-1.31-0.59-1.31-1.31v-0.83 c0-0.64,0.46-1.19,1.1-1.29l1.33-0.22c0.63-0.1,1.1-0.65,1.1-1.29v-1c0-0.5-0.28-0.95-0.72-1.17l-1.18-0.59 c-0.58-0.29-0.86-0.97-0.66-1.58l0.8-2.4c0.18-0.53,0.68-0.9,1.24-0.9h2.83c0,0-0.14,0.55-0.29,1.46 c-0.43,2.62-0.89,8.24,1.95,12.56c0.24,0.36,0.66,0.57,1.09,0.57h0.92c0.72,0,1.31,0.59,1.31,1.31l0,0c0,0.72-0.59,1.31-1.31,1.31 h-3.98C36.37,41.74,35.78,41.15,35.78,40.43z"></path> <path fill="#1D1D1B" d="M61.33,17.25c0,0-17.83,1.46-24.23,8.75c0,0-2.02,8.75,2.35,13.13c0,0,21.88,1.46,26.25-2.92 C65.71,36.2,64.25,20.16,61.33,17.25z"></path> <path fill="#F39200" d="M60.26,17.25c1.34-3.17,3.6-2.8,4.74-2.36c0.43,0.17,0.76,0.51,0.9,0.95c0.85,2.7,4.24,13.7,4.66,18.03 c0.37,3.92-1.46,6.56-2.25,7.49c-0.23,0.27-0.34,0.61-0.34,0.96v3.31c0,0.84-0.68,1.51-1.51,1.51h-8.7h-1.73 c-0.84,0-1.51-0.68-1.51-1.51v-3.54c0-0.84,0.68-1.51,1.51-1.51h6.77c1.04,0,2.09-1.49,2.6-2.34c0.21-0.35,0.26-0.78,0.15-1.18 l-5.66-19.81H60.26z"></path> <path fill="none" stroke="#1D1D1B" stroke-width="0.25" stroke-miterlimit="10" d="M18.31,27.31"></path> <path fill="#CCFFFC" d="M19.04,39.12H14.6c-0.77,0-1.39-0.62-1.39-1.39v-8.81c0-0.81,0.66-1.46,1.46-1.46h4.37V39.12z"></path> <path fill="#CCFFFC" d="M25.02,39.12H20.5V27.45h4.48c0.75,0,1.35,0.61,1.35,1.35v9C26.33,38.53,25.75,39.12,25.02,39.12z"></path> <path fill="#312783" d="M29.98,26H11.02c-1.21,0-2.19-0.98-2.19-2.19v0c0-1.21,0.98-2.19,2.19-2.19h18.96 c1.21,0,2.19,0.98,2.19,2.19v0C32.17,25.02,31.19,26,29.98,26z"></path> <circle fill="#1D1D1B" cx="27.79" cy="49.33" r="4.38"></circle> <circle fill="#F39200" cx="27.79" cy="49.33" r="2.92"></circle> <circle fill="#1D1D1B" cx="52.58" cy="49.33" r="4.38"></circle> <circle fill="#F39200" cx="52.58" cy="49.33" r="2.92"></circle> <circle fill="#1D1D1B" cx="64.25" cy="49.33" r="4.38"></circle> <circle fill="#F39200" cx="64.25" cy="49.33" r="2.92"></circle> <rect x="7.08" y="34.75" fill="#F9B233" width="2.92" height="1.46"></rect> <path fill="#CCFFFC" d="M44.67,21.09c0,0,6.97-2.59,8.17-2.49c1.2,0.1,5.41,20.14,5.41,20.14s-7.33,0.84-9.42,0.61L44.67,21.09z"></path> </svg> 