<?xml version="1.0" encoding="UTF-8"?>
<!DOCTYPE svg PUBLIC "-//W3C//DTD SVG 1.1//EN" "http://www.w3.org/Graphics/SVG/1.1/DTD/svg11.dtd">
<svg xmlns="http://www.w3.org/2000/svg" version="1.1" width="474px" height="247px" style="shape-rendering:geometricPrecision; text-rendering:geometricPrecision; image-rendering:optimizeQuality; fill-rule:evenodd; clip-rule:evenodd" xmlns:xlink="http://www.w3.org/1999/xlink">
<g><path style="opacity:0.89" fill="#009ee2" d="M -0.5,32.5 C -0.5,32.1667 -0.5,31.8333 -0.5,31.5C 15.4689,33.8507 28.4689,41.1841 38.5,53.5C 38.6342,62.7099 38.6342,71.7099 38.5,80.5C 31.7276,65.2279 22.3943,51.7279 10.5,40C 7.15115,36.9955 3.48449,34.4955 -0.5,32.5 Z"/></g>
<g><path style="opacity:0.944" fill="#1667b6" d="M 133.5,36.5 C 131.407,45.0538 129.74,53.7204 128.5,62.5C 126.883,63.038 125.216,63.3713 123.5,63.5C 124.963,54.8511 126.297,46.1844 127.5,37.5C 129.5,37.1667 131.5,36.8333 133.5,36.5 Z"/></g>
<g><path style="opacity:0.959" fill="#146cba" d="M 133.5,36.5 C 134.167,36.5 134.833,36.5 135.5,36.5C 133.729,44.7886 132.062,53.1219 130.5,61.5C 129.833,61.8333 129.167,62.1667 128.5,62.5C 129.74,53.7204 131.407,45.0538 133.5,36.5 Z"/></g>
<g><path style="opacity:0.959" fill="#136fbd" d="M 135.5,36.5 C 136.167,36.5 136.833,36.5 137.5,36.5C 136.296,44.5222 134.962,52.5222 133.5,60.5C 132.791,61.404 131.791,61.7373 130.5,61.5C 132.062,53.1219 133.729,44.7886 135.5,36.5 Z"/></g>
<g><path style="opacity:0.97" fill="#1174c0" d="M 137.5,36.5 C 138.833,36.5 140.167,36.5 141.5,36.5C 140.045,44.5663 138.379,52.5663 136.5,60.5C 135.5,60.5 134.5,60.5 133.5,60.5C 134.962,52.5222 136.296,44.5222 137.5,36.5 Z"/></g>
<g><path style="opacity:0.962" fill="#0f79c5" d="M 141.5,36.5 C 142.833,36.5 144.167,36.5 145.5,36.5C 143.844,44.1023 142.511,51.769 141.5,59.5C 139.784,59.6287 138.117,59.962 136.5,60.5C 138.379,52.5663 140.045,44.5663 141.5,36.5 Z"/></g>
<g><path style="opacity:0.959" fill="#0d7ec9" d="M 145.5,36.5 C 146.5,36.5 147.5,36.5 148.5,36.5C 146.844,44.1023 145.511,51.769 144.5,59.5C 143.5,59.5 142.5,59.5 141.5,59.5C 142.511,51.769 143.844,44.1023 145.5,36.5 Z"/></g>
<g><path style="opacity:0.938" fill="#0b82cc" d="M 148.5,36.5 C 149.167,36.5 149.833,36.5 150.5,36.5C 149.631,44.1809 148.631,51.8476 147.5,59.5C 146.5,59.5 145.5,59.5 144.5,59.5C 145.511,51.769 146.844,44.1023 148.5,36.5 Z"/></g>
<g><path style="opacity:0.948" fill="#1960b0" d="M 127.5,37.5 C 126.297,46.1844 124.963,54.8511 123.5,63.5C 122.035,64.7368 120.368,65.7368 118.5,66.5C 120.423,57.2197 122.089,47.8863 123.5,38.5C 124.833,38.1667 126.167,37.8333 127.5,37.5 Z"/></g>
<g><path style="opacity:0.963" fill="#0987d0" d="M 150.5,36.5 C 151.391,37.1098 152.391,37.4431 153.5,37.5C 152.283,44.8014 151.283,52.1348 150.5,59.5C 149.5,59.5 148.5,59.5 147.5,59.5C 148.631,51.8476 149.631,44.1809 150.5,36.5 Z"/></g>
<g><path style="opacity:0.963" fill="#1c5aac" d="M 123.5,38.5 C 122.089,47.8863 120.423,57.2197 118.5,66.5C 117.167,67.1667 115.833,67.8333 114.5,68.5C 115.956,59.0957 117.623,49.7624 119.5,40.5C 120.671,39.6554 122.005,38.9887 123.5,38.5 Z"/></g>
<g><path style="opacity:0.981" fill="#078dd4" d="M 153.5,37.5 C 154.959,37.4326 156.292,37.7659 157.5,38.5C 156.37,45.483 155.37,52.483 154.5,59.5C 153.167,59.5 151.833,59.5 150.5,59.5C 151.283,52.1348 152.283,44.8014 153.5,37.5 Z"/></g>
<g><path style="opacity:0.947" fill="#0592d9" d="M 157.5,38.5 C 158.959,38.4326 160.292,38.7659 161.5,39.5C 160.37,46.4816 159.37,53.4816 158.5,60.5C 157.167,60.1667 155.833,59.8333 154.5,59.5C 155.37,52.483 156.37,45.483 157.5,38.5 Z"/></g>
<g><path style="opacity:0.943" fill="#0299de" d="M 161.5,39.5 C 163.284,39.8925 164.95,40.5592 166.5,41.5C 165.044,48.1115 163.711,54.7782 162.5,61.5C 161.292,60.7659 159.959,60.4326 158.5,60.5C 159.37,53.4816 160.37,46.4816 161.5,39.5 Z"/></g>
<g><path style="opacity:0.95" fill="#1e54a7" d="M 119.5,40.5 C 117.623,49.7624 115.956,59.0957 114.5,68.5C 113.101,69.8897 111.434,70.8897 109.5,71.5C 111.572,61.5341 113.572,51.5341 115.5,41.5C 116.708,40.7659 118.041,40.4326 119.5,40.5 Z"/></g>
<g><path style="opacity:0.903" fill="#009ee2" d="M 166.5,41.5 C 190.066,52.24 203.733,70.5733 207.5,96.5C 206.726,97.7112 205.893,97.7112 205,96.5C 196.692,77.6895 182.525,66.0228 162.5,61.5C 163.711,54.7782 165.044,48.1115 166.5,41.5 Z"/></g>
<g><path style="opacity:0.967" fill="#2050a3" d="M 115.5,41.5 C 113.572,51.5341 111.572,61.5341 109.5,71.5C 109.167,72.5 108.5,73.1667 107.5,73.5C 108.909,63.4552 110.576,53.4552 112.5,43.5C 113.29,42.5987 114.29,41.9321 115.5,41.5 Z"/></g>
<g><path style="opacity:0.94" fill="#214ca0" d="M 112.5,43.5 C 110.576,53.4552 108.909,63.4552 107.5,73.5C 106.5,75.1667 105.167,76.5 103.5,77.5C 105.756,66.5548 107.756,55.5548 109.5,44.5C 110.391,43.8902 111.391,43.5569 112.5,43.5 Z"/></g>
<g><path style="opacity:0.94" fill="#23489d" d="M 109.5,44.5 C 107.756,55.5548 105.756,66.5548 103.5,77.5C 102.833,78.8333 101.833,79.8333 100.5,80.5C 102.885,69.2425 104.885,57.9092 106.5,46.5C 107.29,45.5987 108.29,44.9321 109.5,44.5 Z"/></g>
<g><path style="opacity:0.97" fill="#24459b" d="M 106.5,46.5 C 104.885,57.9092 102.885,69.2425 100.5,80.5C 100.167,81.5 99.5,82.1667 98.5,82.5C 99.9865,70.7356 101.986,59.0689 104.5,47.5C 105.167,47.1667 105.833,46.8333 106.5,46.5 Z"/></g>
<g><path style="opacity:0.945" fill="#264097" d="M 104.5,47.5 C 101.986,59.0689 99.9865,70.7356 98.5,82.5C 96.8899,86.1004 94.8899,89.4338 92.5,92.5C 95.2947,78.5266 97.9613,64.5266 100.5,50.5C 101.795,49.5116 103.128,48.5116 104.5,47.5 Z"/></g>
<g><path style="opacity:0.94" fill="#283b93" d="M 100.5,50.5 C 97.9613,64.5266 95.2947,78.5266 92.5,92.5C 89.165,101.504 87.4984,110.837 87.5,120.5C 86.701,125.325 85.701,129.992 84.5,134.5C 83.5592,132.95 82.8925,131.284 82.5,129.5C 86.4008,104.762 90.7341,80.0956 95.5,55.5C 96.8333,53.5 98.5,51.8333 100.5,50.5 Z"/></g>
<g><path style="opacity:0.953" fill="#0299de" d="M 38.5,53.5 C 39.5,53.8333 40.1667,54.5 40.5,55.5C 41.2136,65.596 41.5469,75.9293 41.5,86.5C 40.1302,84.7496 39.1302,82.7496 38.5,80.5C 38.6342,71.7099 38.6342,62.7099 38.5,53.5 Z"/></g>
<g><path style="opacity:0.976" fill="#2a368f" d="M 95.5,55.5 C 90.7341,80.0956 86.4008,104.762 82.5,129.5C 81.2632,128.035 80.2632,126.368 79.5,124.5C 84.3219,102.722 88.6553,80.7219 92.5,58.5C 93.1667,57.1667 94.1667,56.1667 95.5,55.5 Z"/></g>
<g><path style="opacity:0.939" fill="#0592d8" d="M 40.5,55.5 C 41.8333,56.1667 42.8333,57.1667 43.5,58.5C 43.7706,70.6839 43.7706,82.6839 43.5,94.5C 42.6295,91.8877 41.9628,89.221 41.5,86.5C 41.5469,75.9293 41.2136,65.596 40.5,55.5 Z"/></g>
<g><path style="opacity:0.968" fill="#2c328c" d="M 92.5,58.5 C 88.6553,80.7219 84.3219,102.722 79.5,124.5C 78.8333,122.167 78.1667,119.833 77.5,117.5C 81.1709,100.136 84.1709,82.8024 86.5,65.5C 88.2733,62.9401 90.2733,60.6068 92.5,58.5 Z"/></g>
<g><path style="opacity:0.924" fill="#078cd3" d="M 43.5,58.5 C 44.4013,59.2905 45.0679,60.2905 45.5,61.5C 45.8555,75.0318 46.1889,88.6984 46.5,102.5C 45.5115,99.9188 44.5115,97.2521 43.5,94.5C 43.7706,82.6839 43.7706,70.6839 43.5,58.5 Z"/></g>
<g><path style="opacity:0.924" fill="#0987d0" d="M 45.5,61.5 C 46.9063,61.9731 47.573,62.9731 47.5,64.5C 47.5348,79.5082 47.8681,94.5082 48.5,109.5C 47.3882,107.401 46.7215,105.067 46.5,102.5C 46.1889,88.6984 45.8555,75.0318 45.5,61.5 Z"/></g>
<g><path style="opacity:0.945" fill="#2e2d88" d="M 86.5,65.5 C 84.1709,82.8024 81.1709,100.136 77.5,117.5C 76.7347,114.904 76.4013,112.237 76.5,109.5C 79.0837,96.9121 81.4171,84.2455 83.5,71.5C 84.4706,69.5168 85.4706,67.5168 86.5,65.5 Z"/></g>
<g><path style="opacity:0.935" fill="#0d7ec9" d="M 49.5,66.5 C 49.8333,67.1667 50.1667,67.8333 50.5,68.5C 51.2463,89.2982 51.9129,109.965 52.5,130.5C 51.0966,127.091 50.4299,123.425 50.5,119.5C 50.1045,103.489 49.4379,87.4887 48.5,71.5C 48.5068,69.6307 48.8401,67.964 49.5,66.5 Z"/></g>
<g><path style="opacity:0.953" fill="#0f79c5" d="M 50.5,68.5 C 51.6737,69.5137 52.3404,70.847 52.5,72.5C 53.3338,94.0191 54.3338,115.519 55.5,137C 55.4301,137.765 55.0967,138.265 54.5,138.5C 53.2264,136.007 52.5597,133.341 52.5,130.5C 51.9129,109.965 51.2463,89.2982 50.5,68.5 Z"/></g>
<g><path style="opacity:1" fill="#fefffe" d="M 412.5,86.5 C 409.652,79.4834 404.652,77.6501 397.5,81C 394.833,84 394.833,87 397.5,90C 405.01,90.957 412.01,93.2903 418.5,97C 426.961,109.952 423.961,119.285 409.5,125C 394.984,127.914 385.651,122.414 381.5,108.5C 385.043,107.031 388.709,106.031 392.5,105.5C 394.932,114.491 400.598,117.324 409.5,114C 412.167,111 412.167,108 409.5,105C 404.548,103.542 399.548,102.209 394.5,101C 381.749,93.3238 380.416,83.9905 390.5,73C 397.848,69.165 405.515,68.4983 413.5,71C 418.638,74.1191 421.638,78.6191 422.5,84.5C 419.123,84.9595 415.789,85.6261 412.5,86.5 Z"/></g>
<g><path style="opacity:0.884" fill="#1b5dae" d="M 130.5,70.5 C 131.833,70.5 133.167,70.5 134.5,70.5C 134.249,72.1703 133.582,73.6703 132.5,75C 133.094,75.4643 133.761,75.631 134.5,75.5C 132.365,77.0709 130.032,78.4043 127.5,79.5C 127.062,79.5654 126.728,79.3988 126.5,79C 128.246,76.3413 129.58,73.508 130.5,70.5 Z"/></g>
<g><path style="opacity:0.822" fill="#1669b8" d="M 134.5,70.5 C 136.833,70.5 139.167,70.5 141.5,70.5C 140.167,71.5 140.167,72.5 141.5,73.5C 139.079,73.8782 136.746,74.5448 134.5,75.5C 133.761,75.631 133.094,75.4643 132.5,75C 133.582,73.6703 134.249,72.1703 134.5,70.5 Z"/></g>
<g><path style="opacity:0.521" fill="#0e7bc6" d="M 141.5,70.5 C 144.195,70.5627 145.195,71.5627 144.5,73.5C 144.167,73.5 143.833,73.5 143.5,73.5C 142.833,73.5 142.167,73.5 141.5,73.5C 140.167,72.5 140.167,71.5 141.5,70.5 Z"/></g>
<g><path style="opacity:1" fill="#fefffe" d="M 245.5,70.5 C 249.846,70.3343 254.179,70.501 258.5,71C 262.207,77.5823 266.041,84.0823 270,90.5C 273.455,83.7529 277.289,77.2529 281.5,71C 285.541,70.1735 289.541,70.3401 293.5,71.5C 287.667,81.1667 281.833,90.8333 276,100.5C 275.5,108.493 275.334,116.493 275.5,124.5C 271.5,124.5 267.5,124.5 263.5,124.5C 263.666,116.493 263.5,108.493 263,100.5C 256.891,90.609 251.058,80.609 245.5,70.5 Z"/></g>
<g><path style="opacity:1" fill="#fefffe" d="M 299.5,70.5 C 311.167,70.5 322.833,70.5 334.5,70.5C 334.5,74.1667 334.5,77.8333 334.5,81.5C 326.833,81.5 319.167,81.5 311.5,81.5C 311.5,85.1667 311.5,88.8333 311.5,92.5C 318.167,92.5 324.833,92.5 331.5,92.5C 331.5,95.8333 331.5,99.1667 331.5,102.5C 324.833,102.5 318.167,102.5 311.5,102.5C 311.5,106.167 311.5,109.833 311.5,113.5C 319.167,113.5 326.833,113.5 334.5,113.5C 334.5,117.167 334.5,120.833 334.5,124.5C 322.833,124.5 311.167,124.5 299.5,124.5C 299.5,106.5 299.5,88.5 299.5,70.5 Z"/></g>
<g><path style="opacity:1" fill="#fefffe" d="M 343.5,70.5 C 347.167,70.5 350.833,70.5 354.5,70.5C 354.5,84.8333 354.5,99.1667 354.5,113.5C 362.5,113.5 370.5,113.5 378.5,113.5C 378.5,117.167 378.5,120.833 378.5,124.5C 366.833,124.5 355.167,124.5 343.5,124.5C 343.5,106.5 343.5,88.5 343.5,70.5 Z"/></g>
<g><path style="opacity:1" fill="#fefffe" d="M 430.5,70.5 C 434.5,70.5 438.5,70.5 442.5,70.5C 442.333,83.8375 442.5,97.1708 443,110.5C 447.2,114.714 452.034,115.548 457.5,113C 458.701,112.097 459.535,110.931 460,109.5C 460.5,96.5043 460.667,83.5043 460.5,70.5C 464.5,70.5 468.5,70.5 472.5,70.5C 472.667,84.1707 472.5,97.8374 472,111.5C 466.834,123 458.001,127.5 445.5,125C 439.159,123.325 434.659,119.492 432,113.5C 430.551,99.2391 430.051,84.9058 430.5,70.5 Z"/></g>
<g><path style="opacity:0.843" fill="#302984" d="M 83.5,71.5 C 81.4171,84.2455 79.0837,96.9121 76.5,109.5C 74.4502,96.0787 76.7835,83.412 83.5,71.5 Z"/></g>
<g><path style="opacity:0.957" fill="#1173c0" d="M 52.5,72.5 C 54.2503,73.6594 55.2503,75.326 55.5,77.5C 55.8173,99.8643 56.484,122.198 57.5,144.5C 55.9925,142.819 54.9925,140.819 54.5,138.5C 55.0967,138.265 55.4301,137.765 55.5,137C 54.3338,115.519 53.3338,94.0191 52.5,72.5 Z"/></g>
<g><path style="opacity:0.962" fill="#264198" d="M 123.5,73.5 C 115.242,87.681 107.242,102.014 99.5,116.5C 98.596,115.791 98.2627,114.791 98.5,113.5C 106.578,101.021 113.911,88.0214 120.5,74.5C 121.209,73.596 122.209,73.2627 123.5,73.5 Z"/></g>
<g><path style="opacity:0.933" fill="#009fe3" d="M 143.5,73.5 C 143.833,73.5 144.167,73.5 144.5,73.5C 146.833,73.5 149.167,73.5 151.5,73.5C 151.5,79.1667 151.5,84.8333 151.5,90.5C 141.348,86.2577 131.348,86.591 121.5,91.5C 121.167,91.1667 120.833,90.8333 120.5,90.5C 126.268,82.0392 133.934,76.3726 143.5,73.5 Z"/></g>
<g><path style="opacity:0.942" fill="#0299de" d="M 151.5,73.5 C 152.167,73.5 152.833,73.5 153.5,73.5C 153.5,79.5 153.5,85.5 153.5,91.5C 152.508,91.6716 151.842,91.3382 151.5,90.5C 151.5,84.8333 151.5,79.1667 151.5,73.5 Z"/></g>
<g><path style="opacity:0.954" fill="#0591d8" d="M 153.5,73.5 C 154.167,73.5 154.833,73.5 155.5,73.5C 155.5,79.8333 155.5,86.1667 155.5,92.5C 154.508,92.6716 153.842,92.3382 153.5,91.5C 153.5,85.5 153.5,79.5 153.5,73.5 Z"/></g>
<g><path style="opacity:0.952" fill="#078bd3" d="M 155.5,73.5 C 156.167,73.5 156.833,73.5 157.5,73.5C 157.5,80.1667 157.5,86.8333 157.5,93.5C 156.508,93.6716 155.842,93.3382 155.5,92.5C 155.5,86.1667 155.5,79.8333 155.5,73.5 Z"/></g>
<g><path style="opacity:0.952" fill="#293b93" d="M 120.5,74.5 C 113.911,88.0214 106.578,101.021 98.5,113.5C 98.5,112.5 98.5,111.5 98.5,110.5C 104.822,99.1912 111.156,87.8578 117.5,76.5C 117.973,75.0937 118.973,74.427 120.5,74.5 Z"/></g>
<g><path style="opacity:0.959" fill="#0a85ce" d="M 157.5,73.5 C 158.167,73.8333 158.833,74.1667 159.5,74.5C 159.5,81.5 159.5,88.5 159.5,95.5C 158.5,95.1667 157.833,94.5 157.5,93.5C 157.5,86.8333 157.5,80.1667 157.5,73.5 Z"/></g>
<g><path style="opacity:0.923" fill="#0c7ec9" d="M 159.5,74.5 C 160.492,74.3284 161.158,74.6618 161.5,75.5C 161.5,82.8333 161.5,90.1667 161.5,97.5C 160.5,97.1667 159.833,96.5 159.5,95.5C 159.5,88.5 159.5,81.5 159.5,74.5 Z"/></g>
<g><path style="opacity:0.941" fill="#0f78c4" d="M 161.5,75.5 C 162.167,75.5 162.833,75.5 163.5,75.5C 163.5,83.5 163.5,91.5 163.5,99.5C 162.5,99.1667 161.833,98.5 161.5,97.5C 161.5,90.1667 161.5,82.8333 161.5,75.5 Z"/></g>
<g><path style="opacity:0.545" fill="#1d56a8" d="M 188.5,78.5 C 187.662,78.8417 187.328,79.5084 187.5,80.5C 185.548,77.8816 183.215,75.5482 180.5,73.5C 183.852,73.5325 186.519,75.1991 188.5,78.5 Z"/></g>
<g><path style="opacity:0.953" fill="#1271be" d="M 163.5,75.5 C 164.167,75.8333 164.833,76.1667 165.5,76.5C 165.5,84.8333 165.5,93.1667 165.5,101.5C 164.5,101.167 163.833,100.5 163.5,99.5C 163.5,91.5 163.5,83.5 163.5,75.5 Z"/></g>
<g><path style="opacity:0.944" fill="#146bb9" d="M 165.5,76.5 C 166.5,76.8333 167.167,77.5 167.5,78.5C 167.5,87.1667 167.5,95.8333 167.5,104.5C 166.599,103.71 165.932,102.71 165.5,101.5C 165.5,93.1667 165.5,84.8333 165.5,76.5 Z"/></g>
<g><path style="opacity:1" fill="#1f51a5" d="M 130.5,70.5 C 129.58,73.508 128.246,76.3413 126.5,79C 126.728,79.3988 127.062,79.5654 127.5,79.5C 125.5,81.8333 123.5,84.1667 121.5,86.5C 120.957,86.44 120.624,86.1067 120.5,85.5C 122.086,83.8273 122.753,81.8273 122.5,79.5C 123.242,77.0202 124.242,74.6869 125.5,72.5C 127.167,71.8333 128.833,71.1667 130.5,70.5 Z"/></g>
<g><path style="opacity:0.917" fill="#1765b4" d="M 167.5,78.5 C 168.492,78.3284 169.158,78.6618 169.5,79.5C 169.5,88.8333 169.5,98.1667 169.5,107.5C 168.094,107.027 167.427,106.027 167.5,104.5C 167.5,95.8333 167.5,87.1667 167.5,78.5 Z"/></g>
<g><path style="opacity:0.964" fill="#1a5faf" d="M 169.5,79.5 C 170.167,79.8333 170.833,80.1667 171.5,80.5C 171.828,91.0135 171.494,101.347 170.5,111.5C 170.167,110.167 169.833,108.833 169.5,107.5C 169.5,98.1667 169.5,88.8333 169.5,79.5 Z"/></g>
<g><path style="opacity:0.956" fill="#1767b6" d="M 57.5,81.5 C 59.2927,83.4261 60.2927,85.7594 60.5,88.5C 61.216,110.165 61.8827,131.832 62.5,153.5C 60.7497,152.341 59.7497,150.674 59.5,148.5C 59.0481,126.159 58.3815,103.826 57.5,81.5 Z"/></g>
<g><path style="opacity:0.939" fill="#1c58aa" d="M 171.5,80.5 C 172.5,80.8333 173.167,81.5 173.5,82.5C 173.828,94.6783 173.495,106.678 172.5,118.5C 172.233,116.035 171.566,113.701 170.5,111.5C 171.494,101.347 171.828,91.0135 171.5,80.5 Z"/></g>
<g><path style="opacity:0.813" fill="#224a9f" d="M 188.5,78.5 C 190.833,80.1667 192.833,82.1667 194.5,84.5C 193.631,86.717 193.298,89.0504 193.5,91.5C 191.25,88.0012 189.25,84.3346 187.5,80.5C 187.328,79.5084 187.662,78.8417 188.5,78.5 Z"/></g>
<g><path style="opacity:0.976" fill="#1f52a5" d="M 173.5,82.5 C 174.5,82.8333 175.167,83.5 175.5,84.5C 175.5,106.5 175.5,128.5 175.5,150.5C 174.833,151.833 173.833,152.833 172.5,153.5C 172.818,148.968 172.485,144.634 171.5,140.5C 173.662,133.247 173.995,125.913 172.5,118.5C 173.495,106.678 173.828,94.6783 173.5,82.5 Z"/></g>
<g><path style="opacity:0.959" fill="#214ca1" d="M 175.5,84.5 C 176.5,84.8333 177.167,85.5 177.5,86.5C 176.503,107.327 176.169,128.327 176.5,149.5C 176.5,150.167 176.167,150.5 175.5,150.5C 175.5,128.5 175.5,106.5 175.5,84.5 Z"/></g>
<g><path style="opacity:1" fill="#24479c" d="M 125.5,72.5 C 124.242,74.6869 123.242,77.0202 122.5,79.5C 114.833,92.8333 107.167,106.167 99.5,119.5C 99.5,118.5 99.5,117.5 99.5,116.5C 107.242,102.014 115.242,87.681 123.5,73.5C 123.842,72.6618 124.508,72.3284 125.5,72.5 Z"/></g>
<g><path style="opacity:0.989" fill="#23489d" d="M 177.5,86.5 C 177.833,87.1667 178.167,87.8333 178.5,88.5C 178.5,107.833 178.5,127.167 178.5,146.5C 178.068,147.71 177.401,148.71 176.5,149.5C 176.169,128.327 176.503,107.327 177.5,86.5 Z"/></g>
<g><path style="opacity:1" fill="#fefffe" d="M 412.5,86.5 C 411.833,87.1667 411.833,87.1667 412.5,86.5 Z"/></g>
<g><path style="opacity:0.832" fill="#264198" d="M 194.5,84.5 C 196.522,86.5313 198.189,88.8646 199.5,91.5C 198.419,96.4864 197.419,101.486 196.5,106.5C 195.975,101.4 194.975,96.3997 193.5,91.5C 193.298,89.0504 193.631,86.717 194.5,84.5 Z"/></g>
<g><path style="opacity:0.963" fill="#1960b0" d="M 60.5,88.5 C 61.7368,89.9649 62.7368,91.6316 63.5,93.5C 62.8418,94.7933 62.5085,96.2933 62.5,98C 63.6779,117.481 64.3445,136.981 64.5,156.5C 63.0937,156.027 62.427,155.027 62.5,153.5C 61.8827,131.832 61.216,110.165 60.5,88.5 Z"/></g>
<g><path style="opacity:0.94" fill="#264198" d="M 178.5,88.5 C 179.906,88.9731 180.573,89.9731 180.5,91.5C 180.5,108.833 180.5,126.167 180.5,143.5C 180.573,145.027 179.906,146.027 178.5,146.5C 178.5,127.167 178.5,107.833 178.5,88.5 Z"/></g>
<g><path style="opacity:1" fill="#2b348d" d="M 117.5,76.5 C 111.156,87.8578 104.822,99.1912 98.5,110.5C 98.3424,107.098 98.6758,103.764 99.5,100.5C 101.755,99.3524 103.588,97.6857 105,95.5C 107.844,89.8113 110.678,84.1447 113.5,78.5C 114.605,77.3995 115.938,76.7329 117.5,76.5 Z"/></g>
<g><path style="opacity:0.844" fill="#214da2" d="M 122.5,79.5 C 122.753,81.8273 122.086,83.8273 120.5,85.5C 120.624,86.1067 120.957,86.44 121.5,86.5C 119.975,88.2163 118.975,90.2163 118.5,92.5C 117.624,92.3691 116.957,92.7025 116.5,93.5C 112.908,101.281 108.575,108.615 103.5,115.5C 101.945,117.943 101.278,120.61 101.5,123.5C 100.655,122.329 99.9887,120.995 99.5,119.5C 107.167,106.167 114.833,92.8333 122.5,79.5 Z"/></g>
<g><path style="opacity:0.965" fill="#293a92" d="M 180.5,91.5 C 182.539,92.911 183.539,94.911 183.5,97.5C 183.5,110.833 183.5,124.167 183.5,137.5C 183.346,139.97 182.346,141.97 180.5,143.5C 180.5,126.167 180.5,108.833 180.5,91.5 Z"/></g>
<g><path style="opacity:0.922" fill="#283b93" d="M 199.5,91.5 C 201.008,93.1815 202.008,95.1815 202.5,97.5C 198.921,121.798 195.588,146.132 192.5,170.5C 191.167,172.5 189.5,174.167 187.5,175.5C 189.572,161.52 191.572,147.52 193.5,133.5C 196.031,124.697 197.031,115.697 196.5,106.5C 197.419,101.486 198.419,96.4864 199.5,91.5 Z"/></g>
<g><path style="opacity:0.96" fill="#1c5aac" d="M 63.5,93.5 C 64.3705,96.1123 65.0372,98.779 65.5,101.5C 65.7952,121.209 66.4619,140.876 67.5,160.5C 66.0256,159.564 65.0256,158.23 64.5,156.5C 64.3445,136.981 63.6779,117.481 62.5,98C 62.5085,96.2933 62.8418,94.7933 63.5,93.5 Z"/></g>
<g><path style="opacity:1" fill="#2f2c87" d="M 113.5,78.5 C 110.678,84.1447 107.844,89.8113 105,95.5C 103.588,97.6857 101.755,99.3524 99.5,100.5C 101.661,91.4976 106.328,84.1642 113.5,78.5 Z"/></g>
<g><path style="opacity:0.979" fill="#146ebc" d="M 55.5,77.5 C 56.6737,78.5137 57.3404,79.847 57.5,81.5C 58.3815,103.826 59.0481,126.159 59.5,148.5C 58.3263,147.486 57.6596,146.153 57.5,144.5C 56.484,122.198 55.8173,99.8643 55.5,77.5 Z"/></g>
<g><path style="opacity:0.919" fill="#2c318b" d="M 183.5,97.5 C 184.931,98.7804 185.598,100.447 185.5,102.5C 185.5,112.5 185.5,122.5 185.5,132.5C 185.598,134.553 184.931,136.22 183.5,137.5C 183.5,124.167 183.5,110.833 183.5,97.5 Z"/></g>
<g><path style="opacity:0.979" fill="#1c5aac" d="M 115.5,100.5 C 115.5,101.5 115.5,102.5 115.5,103.5C 110.899,111.036 106.566,118.703 102.5,126.5C 102.5,126.167 102.5,125.833 102.5,125.5C 105.518,116.463 109.852,108.129 115.5,100.5 Z"/></g>
<g><path style="opacity:0.974" fill="#2a368f" d="M 202.5,97.5 C 203.674,98.5137 204.34,99.847 204.5,101.5C 201.095,123.071 198.095,144.738 195.5,166.5C 195.262,168.404 194.262,169.738 192.5,170.5C 195.588,146.132 198.921,121.798 202.5,97.5 Z"/></g>
<g><path style="opacity:0.949" fill="#1e54a7" d="M 65.5,101.5 C 66.6772,103.679 67.6772,106.013 68.5,108.5C 67.8418,109.793 67.5085,111.293 67.5,113C 68.2477,129.831 68.9143,146.665 69.5,163.5C 68.5987,162.71 67.9321,161.71 67.5,160.5C 66.4619,140.876 65.7952,121.209 65.5,101.5 Z"/></g>
<g><path style="opacity:0.97" fill="#2c328c" d="M 204.5,101.5 C 205.945,103.571 206.945,105.904 207.5,108.5C 204.608,125.29 202.275,142.29 200.5,159.5C 199.567,162.37 197.9,164.704 195.5,166.5C 198.095,144.738 201.095,123.071 204.5,101.5 Z"/></g>
<g><path style="opacity:0.8" fill="#0b82cc" d="M 47.5,64.5 C 48.5,64.8333 49.1667,65.5 49.5,66.5C 48.8401,67.964 48.5068,69.6307 48.5,71.5C 49.4379,87.4887 50.1045,103.489 50.5,119.5C 49.2154,116.411 48.5488,113.078 48.5,109.5C 47.8681,94.5082 47.5348,79.5082 47.5,64.5 Z"/></g>
<g><path style="opacity:1" fill="#1e54a7" d="M 118.5,92.5 C 117.248,95.1631 116.248,97.8298 115.5,100.5C 109.852,108.129 105.518,116.463 102.5,125.5C 101.662,125.158 101.328,124.492 101.5,123.5C 101.278,120.61 101.945,117.943 103.5,115.5C 108.575,108.615 112.908,101.281 116.5,93.5C 116.957,92.7025 117.624,92.3691 118.5,92.5 Z"/></g>
<g><path style="opacity:0.929" fill="#1960b1" d="M 115.5,103.5 C 115.5,105.167 115.5,106.833 115.5,108.5C 111.01,114.804 107.01,121.471 103.5,128.5C 103.167,127.833 102.833,127.167 102.5,126.5C 106.566,118.703 110.899,111.036 115.5,103.5 Z"/></g>
<g><path style="opacity:0.629" fill="#2f2a85" d="M 185.5,102.5 C 189.5,112.5 189.5,122.5 185.5,132.5C 185.5,122.5 185.5,112.5 185.5,102.5 Z"/></g>
<g><path style="opacity:0.949" fill="#2050a3" d="M 68.5,108.5 C 68.8333,109.833 69.1667,111.167 69.5,112.5C 68.8761,112.917 68.5427,113.584 68.5,114.5C 69.6347,131.136 70.3014,147.803 70.5,164.5C 69.8333,164.5 69.5,164.167 69.5,163.5C 68.9143,146.665 68.2477,129.831 67.5,113C 67.5085,111.293 67.8418,109.793 68.5,108.5 Z"/></g>
<g><path style="opacity:0.935" fill="#1767b6" d="M 115.5,108.5 C 115.5,109.5 115.5,110.5 115.5,111.5C 111.406,117.351 108.073,123.685 105.5,130.5C 104.5,130.167 103.833,129.5 103.5,128.5C 107.01,121.471 111.01,114.804 115.5,108.5 Z"/></g>
<g><path style="opacity:0.941" fill="#2e2d88" d="M 207.5,108.5 C 208.015,110.894 208.681,113.228 209.5,115.5C 207.022,127.952 205.022,140.619 203.5,153.5C 203.346,155.97 202.346,157.97 200.5,159.5C 202.275,142.29 204.608,125.29 207.5,108.5 Z"/></g>
<g><path style="opacity:0.929" fill="#214ca0" d="M 69.5,112.5 C 70.2186,114.764 70.552,117.097 70.5,119.5C 71.1487,135.368 71.8153,151.034 72.5,166.5C 71.5,166.167 70.8333,165.5 70.5,164.5C 70.3014,147.803 69.6347,131.136 68.5,114.5C 68.5427,113.584 68.8761,112.917 69.5,112.5 Z"/></g>
<g><path style="opacity:0.874" fill="#009fe3" d="M 165.5,147.5 C 160.91,145.561 156.577,143.227 152.5,140.5C 160.262,133.652 164.929,124.985 166.5,114.5C 170.715,122.776 171.548,131.442 169,140.5C 168.33,143.174 167.163,145.507 165.5,147.5 Z"/></g>
<g><path style="opacity:0.866" fill="#302984" d="M 209.5,115.5 C 209.666,123.174 209.5,130.841 209,138.5C 207.913,143.897 206.08,148.897 203.5,153.5C 205.022,140.619 207.022,127.952 209.5,115.5 Z"/></g>
<g><path style="opacity:0.934" fill="#0f79c5" d="M 117.5,116.5 C 117.5,117.167 117.5,117.833 117.5,118.5C 114.53,123.766 111.53,129.1 108.5,134.5C 107.5,134.167 106.833,133.5 106.5,132.5C 110.141,127.242 113.807,121.909 117.5,116.5 Z"/></g>
<g><path style="opacity:0.905" fill="#23479d" d="M 70.5,119.5 C 72.1184,123.575 73.1184,127.908 73.5,132.5C 74.0754,144.492 74.4087,156.492 74.5,168.5C 73.5,168.167 72.8333,167.5 72.5,166.5C 71.8153,151.034 71.1487,135.368 70.5,119.5 Z"/></g>
<g><path style="opacity:0.793" fill="#264097" d="M 87.5,120.5 C 88.5808,123.627 89.2474,126.96 89.5,130.5C 88.6295,133.003 87.9628,135.67 87.5,138.5C 86.0256,137.564 85.0256,136.23 84.5,134.5C 85.701,129.992 86.701,125.325 87.5,120.5 Z"/></g>
<g><path style="opacity:0.965" fill="#0a86cf" d="M 119.5,121.5 C 119.5,121.833 119.5,122.167 119.5,122.5C 116.763,127.542 114.096,132.542 111.5,137.5C 110.833,137.5 110.5,137.167 110.5,136.5C 112.665,131.001 115.665,126.001 119.5,121.5 Z"/></g>
<g><path style="opacity:0.949" fill="#1078c4" d="M 99.5,123.5 C 98.1667,123.5 96.8333,123.5 95.5,123.5C 96.8254,115.521 98.1588,115.521 99.5,123.5 Z"/></g>
<g><path style="opacity:0.966" fill="#0c80ca" d="M 117.5,118.5 C 118.401,119.29 119.068,120.29 119.5,121.5C 115.665,126.001 112.665,131.001 110.5,136.5C 109.5,136.167 108.833,135.5 108.5,134.5C 111.53,129.1 114.53,123.766 117.5,118.5 Z"/></g>
<g><path style="opacity:0.945" fill="#0298de" d="M 121.5,125.5 C 122.338,125.842 122.672,126.508 122.5,127.5C 120.5,131.833 118.5,136.167 116.5,140.5C 115.508,140.672 114.842,140.338 114.5,139.5C 116.847,134.807 119.18,130.14 121.5,125.5 Z"/></g>
<g><path style="opacity:1" fill="#1668b7" d="M 95.5,123.5 C 96.8333,123.5 98.1667,123.5 99.5,123.5C 100.227,125.954 101.227,128.287 102.5,130.5C 100.313,129.242 97.9798,128.242 95.5,127.5C 95.5,126.167 95.5,124.833 95.5,123.5 Z"/></g>
<g><path style="opacity:0.925" fill="#009fe3" d="M 122.5,127.5 C 126.05,131.214 130.05,134.381 134.5,137C 139.51,138.557 144.177,140.39 148.5,142.5C 140.335,145.621 132.001,146.121 123.5,144C 120.826,143.33 118.493,142.163 116.5,140.5C 118.5,136.167 120.5,131.833 122.5,127.5 Z"/></g>
<g><path style="opacity:1" fill="#1370bd" d="M 115.5,111.5 C 116.309,113.028 116.976,114.694 117.5,116.5C 113.807,121.909 110.141,127.242 106.5,132.5C 105.662,132.158 105.328,131.492 105.5,130.5C 108.073,123.685 111.406,117.351 115.5,111.5 Z"/></g>
<g><path style="opacity:0.821" fill="#1b5cad" d="M 95.5,127.5 C 97.9798,128.242 100.313,129.242 102.5,130.5C 103.248,132.332 104.248,133.999 105.5,135.5C 105.565,135.938 105.399,136.272 105,136.5C 102.04,135.037 99.2062,133.371 96.5,131.5C 95.5655,130.432 95.2322,129.099 95.5,127.5 Z"/></g>
<g><path style="opacity:0.918" fill="#264198" d="M 73.5,132.5 C 74.7384,134.214 75.405,136.214 75.5,138.5C 76.2292,148.986 76.5626,159.653 76.5,170.5C 75.5,170.167 74.8333,169.5 74.5,168.5C 74.4087,156.492 74.0754,144.492 73.5,132.5 Z"/></g>
<g><path style="opacity:0.958" fill="#264097" d="M 193.5,133.5 C 191.572,147.52 189.572,161.52 187.5,175.5C 187.027,176.906 186.027,177.573 184.5,177.5C 185.646,165.812 186.979,154.145 188.5,142.5C 189.929,139.304 191.595,136.304 193.5,133.5 Z"/></g>
<g><path style="opacity:0.936" fill="#009fe3" d="M 124.5,168.5 C 124.694,175.16 123.694,181.493 121.5,187.5C 97.7977,178.113 83.4643,160.78 78.5,135.5C 79.2739,134.289 80.1072,134.289 81,135.5C 90.1755,153.356 104.675,164.356 124.5,168.5 Z"/></g>
<g><path style="opacity:0.773" fill="#23479c" d="M 89.5,130.5 C 90.7837,133.402 91.7837,136.402 92.5,139.5C 91.7659,140.708 91.4326,142.041 91.5,143.5C 89.4131,142.415 88.0798,140.749 87.5,138.5C 87.9628,135.67 88.6295,133.003 89.5,130.5 Z"/></g>
<g><path style="opacity:1" fill="#068ed6" d="M 119.5,122.5 C 120.401,123.29 121.068,124.29 121.5,125.5C 119.18,130.14 116.847,134.807 114.5,139.5C 113.29,139.068 112.29,138.401 111.5,137.5C 114.096,132.542 116.763,127.542 119.5,122.5 Z"/></g>
<g><path style="opacity:1" fill="#fefffe" d="M 245.5,135.5 C 321.167,135.5 396.833,135.5 472.5,135.5C 472.5,136.5 472.5,137.5 472.5,138.5C 396.833,138.5 321.167,138.5 245.5,138.5C 245.5,137.5 245.5,136.5 245.5,135.5 Z"/></g>
<g><path style="opacity:1" fill="#214da1" d="M 96.5,133.5 C 102.412,136.427 107.746,140.094 112.5,144.5C 107.368,142.1 102.368,139.434 97.5,136.5C 96.8902,135.609 96.5569,134.609 96.5,133.5 Z"/></g>
<g><path style="opacity:0.964" fill="#264198" d="M 98.5,139.5 C 112.875,147.348 126.875,155.682 140.5,164.5C 139.833,164.5 139.167,164.5 138.5,164.5C 125.371,157.1 112.371,149.434 99.5,141.5C 98.6618,141.158 98.3284,140.492 98.5,139.5 Z"/></g>
<g><path style="opacity:1" fill="#24479c" d="M 97.5,136.5 C 102.368,139.434 107.368,142.1 112.5,144.5C 122.666,151.084 133,157.418 143.5,163.5C 142.609,164.11 141.609,164.443 140.5,164.5C 126.875,155.682 112.875,147.348 98.5,139.5C 97.596,138.791 97.2627,137.791 97.5,136.5 Z"/></g>
<g><path style="opacity:0.944" fill="#293a92" d="M 75.5,138.5 C 77.3459,141.54 78.6792,144.873 79.5,148.5C 79.7823,156.836 80.1156,165.169 80.5,173.5C 79.1667,172.5 77.8333,171.5 76.5,170.5C 76.5626,159.653 76.2292,148.986 75.5,138.5 Z"/></g>
<g><path style="opacity:0.911" fill="#0396dc" d="M 152.5,140.5 C 156.577,143.227 160.91,145.561 165.5,147.5C 165.068,148.71 164.401,149.71 163.5,150.5C 158.5,148.336 153.833,145.669 149.5,142.5C 150.29,141.599 151.29,140.932 152.5,140.5 Z"/></g>
<g><path style="opacity:0.973" fill="#283b93" d="M 99.5,141.5 C 112.371,149.434 125.371,157.1 138.5,164.5C 137.167,164.5 135.833,164.5 134.5,164.5C 123.654,157.987 112.654,151.653 101.5,145.5C 100.326,144.486 99.6596,143.153 99.5,141.5 Z"/></g>
<g><path style="opacity:0.653" fill="#2050a3" d="M 92.5,139.5 C 95.0692,142.961 97.4026,146.628 99.5,150.5C 98.8333,150.5 98.5,150.833 98.5,151.5C 95.4275,149.431 93.0941,146.764 91.5,143.5C 91.4326,142.041 91.7659,140.708 92.5,139.5 Z"/></g>
<g><path style="opacity:0.874" fill="#1a5dae" d="M 171.5,140.5 C 172.485,144.634 172.818,148.968 172.5,153.5C 171.5,154.167 170.5,154.833 169.5,155.5C 169.5,152.833 169.5,150.167 169.5,147.5C 170.167,145.167 170.833,142.833 171.5,140.5 Z"/></g>
<g><path style="opacity:1" fill="#1f53a6" d="M 96.5,131.5 C 99.2062,133.371 102.04,135.037 105,136.5C 105.399,136.272 105.565,135.938 105.5,135.5C 110.986,141.572 117.652,145.572 125.5,147.5C 125.062,147.435 124.728,147.601 124.5,148C 125.942,148.377 126.942,149.21 127.5,150.5C 126.127,150.657 124.793,150.49 123.5,150C 120.198,147.408 116.531,145.574 112.5,144.5C 107.746,140.094 102.412,136.427 96.5,133.5C 96.5,132.833 96.5,132.167 96.5,131.5 Z"/></g>
<g><path style="opacity:0.967" fill="#24459b" d="M 188.5,142.5 C 186.979,154.145 185.646,165.812 184.5,177.5C 183.833,178.833 182.833,179.833 181.5,180.5C 182.888,168.782 184.555,157.115 186.5,145.5C 186.932,144.29 187.599,143.29 188.5,142.5 Z"/></g>
<g><path style="opacity:0.959" fill="#0f79c4" d="M 143.5,145.5 C 148.502,149.003 153.835,152.003 159.5,154.5C 159.167,155.5 158.5,156.167 157.5,156.5C 152.167,153.167 146.833,149.833 141.5,146.5C 141.842,145.662 142.508,145.328 143.5,145.5 Z"/></g>
<g><path style="opacity:0.958" fill="#23489d" d="M 186.5,145.5 C 184.555,157.115 182.888,168.782 181.5,180.5C 180.5,181.167 179.5,181.833 178.5,182.5C 180.299,171.905 181.632,161.238 182.5,150.5C 183.604,148.611 184.937,146.945 186.5,145.5 Z"/></g>
<g><path style="opacity:1" fill="#078cd4" d="M 148.5,142.5 C 148.833,142.5 149.167,142.5 149.5,142.5C 153.833,145.669 158.5,148.336 163.5,150.5C 163.167,151.5 162.5,152.167 161.5,152.5C 156.992,149.747 152.659,146.747 148.5,143.5C 148.5,143.167 148.5,142.833 148.5,142.5 Z"/></g>
<g><path style="opacity:0.942" fill="#1c5aac" d="M 125.5,147.5 C 127.5,147.5 129.5,147.5 131.5,147.5C 130.402,148.397 130.402,149.23 131.5,150C 138.23,153.357 144.563,157.19 150.5,161.5C 149.833,161.833 149.167,162.167 148.5,162.5C 141.996,157.745 134.996,153.745 127.5,150.5C 126.942,149.21 125.942,148.377 124.5,148C 124.728,147.601 125.062,147.435 125.5,147.5 Z"/></g>
<g><path style="opacity:0.943" fill="#1960b0" d="M 131.5,147.5 C 132.167,147.5 132.833,147.5 133.5,147.5C 133.369,148.376 133.702,149.043 134.5,149.5C 140.898,152.69 146.898,156.357 152.5,160.5C 151.833,160.833 151.167,161.167 150.5,161.5C 144.563,157.19 138.23,153.357 131.5,150C 130.402,149.23 130.402,148.397 131.5,147.5 Z"/></g>
<g><path style="opacity:1" fill="#0a86cf" d="M 148.5,143.5 C 152.659,146.747 156.992,149.747 161.5,152.5C 161.5,153.167 161.167,153.5 160.5,153.5C 155.797,150.486 151.13,147.486 146.5,144.5C 146.842,143.662 147.508,143.328 148.5,143.5 Z"/></g>
<g><path style="opacity:0.807" fill="#1765b4" d="M 169.5,147.5 C 169.5,150.167 169.5,152.833 169.5,155.5C 169.158,156.338 168.492,156.672 167.5,156.5C 167.5,154.5 167.5,152.5 167.5,150.5C 167.932,149.29 168.599,148.29 169.5,147.5 Z"/></g>
<g><path style="opacity:1" fill="#fefffe" d="M 300.5,147.5 C 307.566,146.847 311.9,149.847 313.5,156.5C 312.167,156.5 310.833,156.5 309.5,156.5C 309.269,153.1 307.436,151.1 304,150.5C 298.413,151.065 296.579,153.898 298.5,159C 302.116,160.487 305.783,161.82 309.5,163C 315.886,171.091 313.886,176.258 303.5,178.5C 297.724,178.055 294.057,175.055 292.5,169.5C 295.268,166.583 296.768,167.25 297,171.5C 300.736,175.012 304.736,175.345 309,172.5C 309.896,169.975 309.396,167.808 307.5,166C 302.807,165.29 298.64,163.457 295,160.5C 294.009,158.553 293.675,156.553 294,154.5C 295.694,151.642 297.861,149.309 300.5,147.5 Z"/></g>
<g><path style="opacity:1" fill="#fefffe" d="M 314.5,147.5 C 316.195,148.011 317.861,148.678 319.5,149.5C 321.833,153.5 324.167,157.5 326.5,161.5C 328.829,157.509 331.163,153.509 333.5,149.5C 334.991,148.756 336.491,148.09 338,147.5C 335.587,152.975 332.587,158.309 329,163.5C 328.501,168.155 328.334,172.821 328.5,177.5C 327.167,177.5 325.833,177.5 324.5,177.5C 324.666,172.821 324.499,168.155 324,163.5C 320.559,158.276 317.392,152.943 314.5,147.5 Z"/></g>
<g><path style="opacity:1" fill="#fefffe" d="M 244.5,148.5 C 250.5,148.5 256.5,148.5 262.5,148.5C 262.5,149.5 262.5,150.5 262.5,151.5C 257.833,151.5 253.167,151.5 248.5,151.5C 248.5,154.833 248.5,158.167 248.5,161.5C 252.833,161.5 257.167,161.5 261.5,161.5C 261.5,162.5 261.5,163.5 261.5,164.5C 257.167,164.5 252.833,164.5 248.5,164.5C 248.5,167.833 248.5,171.167 248.5,174.5C 253.167,174.5 257.833,174.5 262.5,174.5C 262.5,175.5 262.5,176.5 262.5,177.5C 256.5,177.5 250.5,177.5 244.5,177.5C 244.5,167.833 244.5,158.167 244.5,148.5 Z"/></g>
<g><path style="opacity:1" fill="#fefffe" d="M 276.5,148.5 C 277.978,148.238 279.311,148.571 280.5,149.5C 284.741,158.642 288.407,167.975 291.5,177.5C 290.167,177.5 288.833,177.5 287.5,177.5C 287.196,174.421 286.196,171.587 284.5,169C 280.179,168.501 275.846,168.334 271.5,168.5C 270.969,171.237 270.136,173.904 269,176.5C 267.506,177.747 266.006,177.747 264.5,176.5C 268.694,167.254 272.694,157.92 276.5,148.5 Z M 277.5,152.5 C 279.772,156.452 281.772,160.618 283.5,165C 280.118,165.824 276.784,165.657 273.5,164.5C 275.438,160.686 276.771,156.686 277.5,152.5 Z"/></g>
<g><path style="opacity:1" fill="#fefffe" d="M 346.5,148.5 C 354.5,148.5 362.5,148.5 370.5,148.5C 370.5,149.5 370.5,150.5 370.5,151.5C 367.167,151.5 363.833,151.5 360.5,151.5C 360.5,160.167 360.5,168.833 360.5,177.5C 359.167,177.5 357.833,177.5 356.5,177.5C 356.5,168.833 356.5,160.167 356.5,151.5C 353.167,151.5 349.833,151.5 346.5,151.5C 346.5,150.5 346.5,149.5 346.5,148.5 Z"/></g>
<g><path style="opacity:1" fill="#fefffe" d="M 374.5,148.5 C 379.179,148.334 383.845,148.501 388.5,149C 393.069,151.541 394.569,155.375 393,160.5C 391.363,162.81 389.196,164.31 386.5,165C 388.959,168.75 391.292,172.583 393.5,176.5C 392.277,177.614 390.944,177.781 389.5,177C 387.626,173.419 385.626,169.919 383.5,166.5C 381.604,165.534 379.604,165.201 377.5,165.5C 377.5,169.5 377.5,173.5 377.5,177.5C 376.5,177.5 375.5,177.5 374.5,177.5C 374.5,167.833 374.5,158.167 374.5,148.5 Z M 377.5,151.5 C 381.584,151.043 385.417,151.71 389,153.5C 389.944,156.347 389.444,158.847 387.5,161C 384.183,161.498 380.85,161.665 377.5,161.5C 377.5,158.167 377.5,154.833 377.5,151.5 Z"/></g>
<g><path style="opacity:1" fill="#fefffe" d="M 406.5,148.5 C 409.238,147.965 411.072,148.965 412,151.5C 415.012,160.037 418.512,168.37 422.5,176.5C 420.994,177.747 419.494,177.747 418,176.5C 416.864,173.904 416.031,171.237 415.5,168.5C 411.154,168.334 406.821,168.501 402.5,169C 401.478,171.545 400.312,174.045 399,176.5C 397.817,177.731 396.651,177.731 395.5,176.5C 399.18,167.145 402.846,157.812 406.5,148.5 Z M 408.5,153.5 C 410.391,156.957 412.058,160.624 413.5,164.5C 410.216,165.657 406.882,165.824 403.5,165C 405.31,161.214 406.977,157.381 408.5,153.5 Z"/></g>
<g><path style="opacity:1" fill="#fefffe" d="M 426.5,148.5 C 445.423,145.907 452.256,153.574 447,171.5C 445.833,173.333 444.333,174.833 442.5,176C 437.264,177.339 431.93,177.839 426.5,177.5C 426.5,167.833 426.5,158.167 426.5,148.5 Z M 429.5,151.5 C 444.903,151.168 449.236,158.001 442.5,172C 438.414,174.053 434.08,174.887 429.5,174.5C 429.5,166.833 429.5,159.167 429.5,151.5 Z"/></g>
<g><path style="opacity:1" fill="#fefffe" d="M 454.5,148.5 C 460.5,148.5 466.5,148.5 472.5,148.5C 472.5,149.5 472.5,150.5 472.5,151.5C 467.833,151.5 463.167,151.5 458.5,151.5C 458.5,154.833 458.5,158.167 458.5,161.5C 462.833,161.5 467.167,161.5 471.5,161.5C 471.5,162.5 471.5,163.5 471.5,164.5C 467.167,164.5 462.833,164.5 458.5,164.5C 458.5,167.833 458.5,171.167 458.5,174.5C 463.167,174.5 467.833,174.5 472.5,174.5C 472.5,175.5 472.5,176.5 472.5,177.5C 466.5,177.5 460.5,177.5 454.5,177.5C 454.5,167.833 454.5,158.167 454.5,148.5 Z"/></g>
<g><path style="opacity:1" fill="#1767b6" d="M 133.5,147.5 C 134.5,147.5 135.5,147.5 136.5,147.5C 142.418,151.956 148.751,155.623 155.5,158.5C 154.5,159.167 153.5,159.833 152.5,160.5C 146.898,156.357 140.898,152.69 134.5,149.5C 133.702,149.043 133.369,148.376 133.5,147.5 Z"/></g>
<g><path style="opacity:0.257" fill="#1c5aab" d="M 99.5,150.5 C 101.446,151.254 102.279,152.588 102,154.5C 100.482,153.837 99.3149,152.837 98.5,151.5C 98.5,150.833 98.8333,150.5 99.5,150.5 Z"/></g>
<g><path style="opacity:1" fill="#146dbb" d="M 140.5,146.5 C 140.937,148.074 141.937,149.241 143.5,150C 147.896,152.527 152.229,155.027 156.5,157.5C 156.5,158.167 156.167,158.5 155.5,158.5C 148.751,155.623 142.418,151.956 136.5,147.5C 137.568,146.566 138.901,146.232 140.5,146.5 Z"/></g>
<g><path style="opacity:1" fill="#1173c0" d="M 140.5,146.5 C 140.833,146.5 141.167,146.5 141.5,146.5C 146.833,149.833 152.167,153.167 157.5,156.5C 157.5,157.167 157.167,157.5 156.5,157.5C 152.229,155.027 147.896,152.527 143.5,150C 141.937,149.241 140.937,148.074 140.5,146.5 Z"/></g>
<g><path style="opacity:0.968" fill="#0c80ca" d="M 146.5,144.5 C 151.13,147.486 155.797,150.486 160.5,153.5C 160.5,154.167 160.167,154.5 159.5,154.5C 153.835,152.003 148.502,149.003 143.5,145.5C 144.391,144.89 145.391,144.557 146.5,144.5 Z"/></g>
<g><path style="opacity:0.974" fill="#214ca0" d="M 182.5,150.5 C 181.632,161.238 180.299,171.905 178.5,182.5C 177.833,182.833 177.167,183.167 176.5,183.5C 177.312,173.481 178.312,163.481 179.5,153.5C 180.167,152.167 181.167,151.167 182.5,150.5 Z"/></g>
<g><path style="opacity:0.972" fill="#2c328c" d="M 79.5,148.5 C 80.6737,149.514 81.3404,150.847 81.5,152.5C 81.3789,159.683 81.3789,167.016 81.5,174.5C 80.8333,174.5 80.5,174.167 80.5,173.5C 80.1156,165.169 79.7823,156.836 79.5,148.5 Z"/></g>
<g><path style="opacity:0.964" fill="#2050a4" d="M 179.5,153.5 C 178.312,163.481 177.312,173.481 176.5,183.5C 175.5,184.167 174.5,184.833 173.5,185.5C 174.5,175.5 175.5,165.5 176.5,155.5C 177.29,154.599 178.29,153.932 179.5,153.5 Z"/></g>
<g><path style="opacity:1" fill="#1e54a7" d="M 127.5,150.5 C 134.996,153.745 141.996,157.745 148.5,162.5C 147.833,162.5 147.167,162.5 146.5,162.5C 139.929,158.723 133.595,154.723 127.5,150.5 Z"/></g>
<g><path style="opacity:0.718" fill="#1370be" d="M 167.5,150.5 C 167.5,152.5 167.5,154.5 167.5,156.5C 166.486,157.674 165.153,158.34 163.5,158.5C 163.5,157.5 163.5,156.5 163.5,155.5C 164.864,153.809 166.197,152.142 167.5,150.5 Z"/></g>
<g><path style="opacity:0.574" fill="#0e7cc7" d="M 163.5,155.5 C 163.5,156.5 163.5,157.5 163.5,158.5C 162.105,160.3 160.439,160.634 158.5,159.5C 160.186,158.143 161.852,156.81 163.5,155.5 Z"/></g>
<g><path style="opacity:0.946" fill="#1e54a7" d="M 176.5,155.5 C 175.5,165.5 174.5,175.5 173.5,185.5C 172.292,186.234 170.959,186.567 169.5,186.5C 170.559,177.089 171.892,167.755 173.5,158.5C 174.167,157.167 175.167,156.167 176.5,155.5 Z"/></g>
<g><path style="opacity:0.981" fill="#2e2d88" d="M 81.5,152.5 C 82.6737,153.514 83.3404,154.847 83.5,156.5C 83.5,162.833 83.5,169.167 83.5,175.5C 82.8333,175.167 82.1667,174.833 81.5,174.5C 81.3789,167.016 81.3789,159.683 81.5,152.5 Z"/></g>
<g><path style="opacity:1" fill="#2e2c87" d="M 104.5,149.5 C 113.46,153.98 122.127,158.98 130.5,164.5C 119.65,163.081 110.983,158.081 104.5,149.5 Z"/></g>
<g><path style="opacity:0.949" fill="#1c5aac" d="M 173.5,158.5 C 171.892,167.755 170.559,177.089 169.5,186.5C 168.486,187.674 167.153,188.34 165.5,188.5C 166.219,179.467 167.219,170.467 168.5,161.5C 169.659,159.75 171.326,158.75 173.5,158.5 Z"/></g>
<g><path style="opacity:1" fill="#2b348d" d="M 101.5,145.5 C 112.654,151.653 123.654,157.987 134.5,164.5C 133.167,164.5 131.833,164.5 130.5,164.5C 122.127,158.98 113.46,153.98 104.5,149.5C 103.026,148.564 102.026,147.23 101.5,145.5 Z"/></g>
<g><path style="opacity:1" fill="#214da2" d="M 112.5,144.5 C 116.531,145.574 120.198,147.408 123.5,150C 124.793,150.49 126.127,150.657 127.5,150.5C 133.595,154.723 139.929,158.723 146.5,162.5C 145.791,163.404 144.791,163.737 143.5,163.5C 133,157.418 122.666,151.084 112.5,144.5 Z"/></g>
<g><path style="opacity:0.957" fill="#1960b0" d="M 168.5,161.5 C 167.219,170.467 166.219,179.467 165.5,188.5C 164.292,189.234 162.959,189.567 161.5,189.5C 162.336,180.812 163.336,172.145 164.5,163.5C 165.514,162.326 166.847,161.66 168.5,161.5 Z"/></g>
<g><path style="opacity:0.943" fill="#312682" d="M 83.5,156.5 C 92.6821,173.011 106.015,185.011 123.5,192.5C 108.61,190.728 95.2771,185.061 83.5,175.5C 83.5,169.167 83.5,162.833 83.5,156.5 Z"/></g>
<g><path style="opacity:0.958" fill="#1764b4" d="M 164.5,163.5 C 163.336,172.145 162.336,180.812 161.5,189.5C 161.158,190.338 160.492,190.672 159.5,190.5C 160.172,181.793 161.172,173.126 162.5,164.5C 162.842,163.662 163.508,163.328 164.5,163.5 Z"/></g>
<g><path style="opacity:0.962" fill="#1668b7" d="M 162.5,164.5 C 161.172,173.126 160.172,181.793 159.5,190.5C 158.5,190.5 157.5,190.5 156.5,190.5C 157.033,182.105 158.033,173.772 159.5,165.5C 160.209,164.596 161.209,164.263 162.5,164.5 Z"/></g>
<g><path style="opacity:0.949" fill="#146bba" d="M 159.5,165.5 C 158.033,173.772 157.033,182.105 156.5,190.5C 155.791,191.404 154.791,191.737 153.5,191.5C 154.83,183.193 156.163,174.86 157.5,166.5C 157.842,165.662 158.508,165.328 159.5,165.5 Z"/></g>
<g><path style="opacity:0.971" fill="#136fbd" d="M 157.5,166.5 C 156.163,174.86 154.83,183.193 153.5,191.5C 152.833,191.5 152.167,191.5 151.5,191.5C 152.01,183.424 153.01,175.424 154.5,167.5C 155.209,166.596 156.209,166.263 157.5,166.5 Z"/></g>
<g><path style="opacity:0.941" fill="#0f79c5" d="M 150.5,167.5 C 149.78,175.872 148.78,184.206 147.5,192.5C 146.167,192.5 144.833,192.5 143.5,192.5C 144.827,184.547 145.827,176.547 146.5,168.5C 147.959,168.567 149.292,168.234 150.5,167.5 Z"/></g>
<g><path style="opacity:0.958" fill="#1174c0" d="M 150.5,167.5 C 151.833,167.5 153.167,167.5 154.5,167.5C 153.01,175.424 152.01,183.424 151.5,191.5C 150.167,191.833 148.833,192.167 147.5,192.5C 148.78,184.206 149.78,175.872 150.5,167.5 Z"/></g>
<g><path style="opacity:0.943" fill="#0299de" d="M 124.5,168.5 C 126.167,168.5 127.833,168.5 129.5,168.5C 128.646,175.481 127.979,182.481 127.5,189.5C 125.214,189.405 123.214,188.738 121.5,187.5C 123.694,181.493 124.694,175.16 124.5,168.5 Z"/></g>
<g><path style="opacity:0.922" fill="#0d7ec9" d="M 143.5,168.5 C 144.5,168.5 145.5,168.5 146.5,168.5C 145.827,176.547 144.827,184.547 143.5,192.5C 142.5,192.5 141.5,192.5 140.5,192.5C 141.697,184.763 142.697,176.763 143.5,168.5 Z"/></g>
<g><path style="opacity:0.957" fill="#0592d9" d="M 129.5,168.5 C 130.708,169.234 132.041,169.567 133.5,169.5C 132.751,176.492 132.084,183.492 131.5,190.5C 129.901,190.768 128.568,190.434 127.5,189.5C 127.979,182.481 128.646,175.481 129.5,168.5 Z"/></g>
<g><path style="opacity:0.944" fill="#078bd3" d="M 133.5,169.5 C 134.833,169.5 136.167,169.5 137.5,169.5C 136.833,176.833 136.167,184.167 135.5,191.5C 133.901,191.768 132.568,191.434 131.5,190.5C 132.084,183.492 132.751,176.492 133.5,169.5 Z"/></g>
<g><path style="opacity:0.971" fill="#0987d0" d="M 137.5,169.5 C 138.5,169.5 139.5,169.5 140.5,169.5C 139.826,176.892 138.826,184.225 137.5,191.5C 136.833,191.5 136.167,191.5 135.5,191.5C 136.167,184.167 136.833,176.833 137.5,169.5 Z"/></g>
<g><path style="opacity:0.977" fill="#0b83cc" d="M 143.5,168.5 C 142.697,176.763 141.697,184.763 140.5,192.5C 139.609,191.89 138.609,191.557 137.5,191.5C 138.826,184.225 139.826,176.892 140.5,169.5C 141.609,169.443 142.609,169.11 143.5,168.5 Z"/></g>
<g><path style="opacity:0.807" fill="#1a5eaf" d="M 181.5,189.5 C 181.5,192.833 181.5,196.167 181.5,199.5C 180.833,199.5 180.167,199.5 179.5,199.5C 179.5,196.5 179.5,193.5 179.5,190.5C 179.842,189.662 180.508,189.328 181.5,189.5 Z"/></g>
<g><path style="opacity:0.842" fill="#1668b6" d="M 181.5,189.5 C 182.167,189.5 182.833,189.5 183.5,189.5C 183.5,192.833 183.5,196.167 183.5,199.5C 182.833,199.5 182.167,199.5 181.5,199.5C 181.5,196.167 181.5,192.833 181.5,189.5 Z"/></g>
<g><path style="opacity:0.79" fill="#1c59ab" d="M 104.5,190.5 C 104.5,193.5 104.5,196.5 104.5,199.5C 104.158,200.338 103.492,200.672 102.5,200.5C 102.5,197.5 102.5,194.5 102.5,191.5C 102.842,190.662 103.508,190.328 104.5,190.5 Z"/></g>
<g><path style="opacity:0.949" fill="#1e54a7" d="M 177.5,190.5 C 178.167,190.5 178.833,190.5 179.5,190.5C 179.5,193.5 179.5,196.5 179.5,199.5C 178.833,199.833 178.167,200.167 177.5,200.5C 177.5,197.167 177.5,193.833 177.5,190.5 Z"/></g>
<g><path style="opacity:0.929" fill="#1176c2" d="M 183.5,189.5 C 184.71,189.932 185.71,190.599 186.5,191.5C 186.5,199.167 186.5,206.833 186.5,214.5C 185.833,214.5 185.167,214.5 184.5,214.5C 184.5,211.5 184.5,208.5 184.5,205.5C 185.865,203.249 185.531,201.249 183.5,199.5C 183.5,196.167 183.5,192.833 183.5,189.5 Z"/></g>
<g><path style="opacity:0.879" fill="#214ea2" d="M 100.5,191.5 C 101.167,191.5 101.833,191.5 102.5,191.5C 102.5,194.5 102.5,197.5 102.5,200.5C 101.167,202.5 101.167,204.5 102.5,206.5C 102.5,209.5 102.5,212.5 102.5,215.5C 101.508,215.672 100.842,215.338 100.5,214.5C 100.5,206.833 100.5,199.167 100.5,191.5 Z"/></g>
<g><path style="opacity:0.971" fill="#1863b3" d="M 104.5,190.5 C 105.167,190.5 105.833,190.5 106.5,190.5C 106.5,193.5 106.5,196.5 106.5,199.5C 105.833,199.5 105.167,199.5 104.5,199.5C 104.5,196.5 104.5,193.5 104.5,190.5 Z"/></g>
<g><path style="opacity:1" fill="#146ebb" d="M 106.5,190.5 C 107.492,190.328 108.158,190.662 108.5,191.5C 108.5,194.5 108.5,197.5 108.5,200.5C 107.508,200.672 106.842,200.338 106.5,199.5C 106.5,196.5 106.5,193.5 106.5,190.5 Z"/></g>
<g><path style="opacity:0.944" fill="#24479d" d="M 177.5,190.5 C 177.5,193.833 177.5,197.167 177.5,200.5C 177.5,201.833 177.5,203.167 177.5,204.5C 177.5,207.833 177.5,211.167 177.5,214.5C 175.973,214.573 174.973,213.906 174.5,212.5C 174.5,205.833 174.5,199.167 174.5,192.5C 175.29,191.599 176.29,190.932 177.5,190.5 Z"/></g>
<g><path style="opacity:0.948" fill="#0c80cb" d="M 186.5,191.5 C 187.492,191.328 188.158,191.662 188.5,192.5C 188.5,199.167 188.5,205.833 188.5,212.5C 188.167,213.5 187.5,214.167 186.5,214.5C 186.5,206.833 186.5,199.167 186.5,191.5 Z"/></g>
<g><path style="opacity:0.94" fill="#25449a" d="M 100.5,191.5 C 100.5,199.167 100.5,206.833 100.5,214.5C 99.5084,214.672 98.8417,214.338 98.5,213.5C 98.5,206.833 98.5,200.167 98.5,193.5C 98.8333,192.5 99.5,191.833 100.5,191.5 Z"/></g>
<g><path style="opacity:0.943" fill="#1176c1" d="M 108.5,191.5 C 109.167,191.5 109.833,191.5 110.5,191.5C 110.5,199.167 110.5,206.833 110.5,214.5C 109.791,215.404 108.791,215.737 107.5,215.5C 107.5,212.5 107.5,209.5 107.5,206.5C 109.654,204.842 109.987,202.842 108.5,200.5C 108.5,197.5 108.5,194.5 108.5,191.5 Z"/></g>
<g><path style="opacity:0.97" fill="#293b93" d="M 174.5,192.5 C 174.5,199.167 174.5,205.833 174.5,212.5C 173.5,212.167 172.833,211.5 172.5,210.5C 172.5,205.167 172.5,199.833 172.5,194.5C 172.833,193.5 173.5,192.833 174.5,192.5 Z"/></g>
<g><path style="opacity:0.941" fill="#293b93" d="M 98.5,193.5 C 98.5,200.167 98.5,206.833 98.5,213.5C 97.5,213.167 96.8333,212.5 96.5,211.5C 96.5,205.833 96.5,200.167 96.5,194.5C 96.8417,193.662 97.5084,193.328 98.5,193.5 Z"/></g>
<g><path style="opacity:0.964" fill="#0c83cc" d="M 110.5,191.5 C 111.71,191.932 112.71,192.599 113.5,193.5C 113.5,199.833 113.5,206.167 113.5,212.5C 113.027,213.906 112.027,214.573 110.5,214.5C 110.5,206.833 110.5,199.167 110.5,191.5 Z"/></g>
<g><path style="opacity:0.932" fill="#088bd4" d="M 188.5,192.5 C 189.833,193.167 190.833,194.167 191.5,195.5C 191.5,200.167 191.5,204.833 191.5,209.5C 191.5,211.5 190.5,212.5 188.5,212.5C 188.5,205.833 188.5,199.167 188.5,192.5 Z"/></g>
<g><path style="opacity:0.912" fill="#068fd6" d="M 113.5,193.5 C 114.906,193.973 115.573,194.973 115.5,196.5C 115.5,201.167 115.5,205.833 115.5,210.5C 115.167,211.5 114.5,212.167 113.5,212.5C 113.5,206.167 113.5,199.833 113.5,193.5 Z"/></g>
<g><path style="opacity:0.883" fill="#2d308a" d="M 172.5,194.5 C 172.5,199.833 172.5,205.167 172.5,210.5C 171.094,210.027 170.427,209.027 170.5,207.5C 170.5,204.167 170.5,200.833 170.5,197.5C 170.427,195.973 171.094,194.973 172.5,194.5 Z"/></g>
<g><path style="opacity:0.848" fill="#0299de" d="M 191.5,195.5 C 195.489,200.206 195.489,204.873 191.5,209.5C 191.5,204.833 191.5,200.167 191.5,195.5 Z"/></g>
<g><path style="opacity:0.851" fill="#0299de" d="M 115.5,196.5 C 119.489,201.127 119.489,205.794 115.5,210.5C 115.5,205.833 115.5,201.167 115.5,196.5 Z"/></g>
<g><path style="opacity:0.66" fill="#302984" d="M 170.5,197.5 C 170.5,200.833 170.5,204.167 170.5,207.5C 167.833,204.167 167.833,200.833 170.5,197.5 Z"/></g>
<g><path style="opacity:0.719" fill="#302984" d="M 93.5,198.5 C 94.4794,201.625 94.8128,204.958 94.5,208.5C 92.2243,205.476 91.8909,202.143 93.5,198.5 Z"/></g>
<g><path style="opacity:1" fill="#2d308a" d="M 96.5,194.5 C 96.5,200.167 96.5,205.833 96.5,211.5C 95.0937,211.027 94.427,210.027 94.5,208.5C 94.8128,204.958 94.4794,201.625 93.5,198.5C 94.5116,197.128 95.5116,195.795 96.5,194.5 Z"/></g>
<g><path style="opacity:0.809" fill="#1e54a7" d="M 177.5,204.5 C 178.5,204.833 179.167,205.5 179.5,206.5C 179.5,209.5 179.5,212.5 179.5,215.5C 178.833,215.167 178.167,214.833 177.5,214.5C 177.5,211.167 177.5,207.833 177.5,204.5 Z"/></g>
<g><path style="opacity:0.848" fill="#1a5eaf" d="M 179.5,206.5 C 180.167,206.5 180.833,206.5 181.5,206.5C 181.5,209.5 181.5,212.5 181.5,215.5C 180.833,215.5 180.167,215.5 179.5,215.5C 179.5,212.5 179.5,209.5 179.5,206.5 Z"/></g>
<g><path style="opacity:0.875" fill="#166ab8" d="M 184.5,205.5 C 184.5,208.5 184.5,211.5 184.5,214.5C 183.791,215.404 182.791,215.737 181.5,215.5C 181.5,212.5 181.5,209.5 181.5,206.5C 182.609,206.443 183.609,206.11 184.5,205.5 Z"/></g>
<g><path style="opacity:0.96" fill="#1c5bac" d="M 102.5,206.5 C 103.391,207.11 104.391,207.443 105.5,207.5C 105.5,210.167 105.5,212.833 105.5,215.5C 104.5,215.5 103.5,215.5 102.5,215.5C 102.5,212.5 102.5,209.5 102.5,206.5 Z"/></g>
<g><path style="opacity:0.943" fill="#1766b6" d="M 107.5,206.5 C 107.5,209.5 107.5,212.5 107.5,215.5C 106.833,215.5 106.167,215.5 105.5,215.5C 105.5,212.833 105.5,210.167 105.5,207.5C 106.167,207.167 106.833,206.833 107.5,206.5 Z"/></g>
</svg>
